<svg id="Layer_2" data-name="Layer 2" xmlns="http://www.w3.org/2000/svg" viewBox="0 0 1150 23">
  <title>zigzag-separator</title>
  <path d="M1150,23c-9,0-13.73-4.59-17.51-8.28-3.41-3.32-5.88-5.72-11.23-5.72s-7.82,2.4-11.24,5.72c-3.79,3.69-8.5,8.28-17.51,8.28s-13.73-4.59-17.51-8.28c-3.41-3.32-5.88-5.72-11.23-5.72s-7.82,2.4-11.23,5.72C1048.73,18.41,1044,23,1035,23s-13.73-4.59-17.51-8.28c-3.41-3.32-5.88-5.72-11.24-5.72s-7.82,2.4-11.23,5.72c-3.79,3.69-8.5,8.28-17.51,8.28S963.78,18.41,960,14.72C956.58,11.4,954.12,9,948.76,9s-7.82,2.4-11.23,5.72C933.74,18.41,929,23,920,23s-13.73-4.59-17.51-8.28C899.09,11.4,896.62,9,891.26,9s-7.82,2.4-11.23,5.72c-3.79,3.69-8.5,8.28-17.51,8.28S848.79,18.41,845,14.72C841.59,11.4,839.12,9,833.76,9s-7.82,2.4-11.23,5.72C818.75,18.41,814,23,805,23s-13.73-4.59-17.51-8.28C784.09,11.4,781.63,9,776.27,9s-7.82,2.4-11.23,5.72c-3.79,3.69-8.5,8.28-17.51,8.28S733.8,18.41,730,14.72C726.6,11.4,724.14,9,718.78,9s-7.82,2.4-11.23,5.72C703.76,18.41,699,23,690,23s-13.73-4.59-17.51-8.28C669.11,11.4,666.64,9,661.29,9s-7.82,2.4-11.23,5.72c-3.79,3.69-8.5,8.28-17.51,8.28S618.81,18.41,615,14.72C611.61,11.4,609.15,9,603.79,9s-7.82,2.4-11.23,5.72C588.77,18.41,584.06,23,575,23s-13.73-4.59-17.51-8.28C554.11,11.4,551.65,9,546.29,9s-7.82,2.4-11.23,5.72c-3.79,3.69-8.5,8.28-17.51,8.28S503.82,18.41,500,14.72C496.62,11.4,494.15,9,488.8,9s-7.82,2.4-11.24,5.72C473.77,18.41,469.06,23,460,23s-13.73-4.59-17.52-8.28C439.12,11.4,436.65,9,431.29,9s-7.82,2.4-11.24,5.72c-3.79,3.69-8.5,8.28-17.51,8.28S388.81,18.41,385,14.72C381.62,11.4,379.15,9,373.79,9s-7.82,2.4-11.24,5.72C358.77,18.41,354.06,23,345,23s-13.73-4.59-17.52-8.28C324.11,11.4,321.65,9,316.29,9s-7.82,2.4-11.24,5.72c-3.79,3.69-8.5,8.28-17.52,8.28S273.81,18.41,270,14.72C266.61,11.4,264.15,9,258.79,9s-7.82,2.4-11.23,5.72C243.77,18.41,239.06,23,230,23s-13.73-4.59-17.51-8.28C209.11,11.4,206.65,9,201.29,9s-7.82,2.4-11.24,5.72c-3.79,3.69-8.5,8.28-17.52,8.28S158.81,18.41,155,14.72C151.61,11.4,149.14,9,143.78,9s-7.83,2.4-11.24,5.72C128.76,18.41,124,23,115,23s-13.73-4.59-17.52-8.28C94.1,11.4,91.63,9,86.27,9S78.45,11.4,75,14.72C71.25,18.41,66.54,23,57.52,23S43.79,18.41,40,14.72C36.59,11.4,34.12,9,28.76,9s-7.83,2.4-11.24,5.72C13.73,18.41,9,23,0,23V14c5.36,0,7.83-2.4,11.24-5.72C15,4.59,19.74,0,28.76,0S42.49,4.59,46.28,8.28C49.69,11.6,52.16,14,57.52,14s7.83-2.4,11.24-5.72C72.54,4.59,77.26,0,86.27,0S100,4.59,103.79,8.28C107.2,11.6,109.67,14,115,14s7.83-2.4,11.24-5.72C130.05,4.59,134.77,0,143.78,0s13.73,4.59,17.52,8.28c3.41,3.32,5.88,5.72,11.24,5.72s7.82-2.4,11.24-5.72C187.56,4.59,192.27,0,201.29,0S215,4.59,218.8,8.28C222.22,11.6,224.68,14,230,14s7.82-2.4,11.23-5.72C245.06,4.59,249.77,0,258.79,0s13.73,4.59,17.52,8.28c3.41,3.32,5.88,5.72,11.24,5.72s7.82-2.4,11.24-5.72C302.56,4.59,307.27,0,316.29,0S330,4.59,333.81,8.28C337.22,11.6,339.68,14,345,14s7.82-2.4,11.24-5.72C360.06,4.59,364.78,0,373.79,0s13.73,4.59,17.52,8.28c3.41,3.32,5.88,5.72,11.24,5.72s7.82-2.4,11.24-5.72C417.56,4.59,422.28,0,431.29,0S445,4.59,448.81,8.28C452.22,11.6,454.69,14,460,14s7.82-2.4,11.24-5.72C475.07,4.59,479.78,0,488.8,0s13.73,4.59,17.51,8.28c3.41,3.32,5.88,5.72,11.23,5.72s7.82-2.4,11.23-5.72C532.56,4.59,537.28,0,546.29,0S560,4.59,563.81,8.28C567.22,11.6,569.68,14,575,14s7.82-2.4,11.23-5.72C590.06,4.59,594.77,0,603.79,0s13.73,4.59,17.52,8.28c3.41,3.32,5.88,5.72,11.24,5.72s7.82-2.4,11.23-5.72C647.56,4.59,652.27,0,661.29,0S675,4.59,678.8,8.28C682.21,11.6,684.68,14,690,14s7.82-2.4,11.23-5.72C705.05,4.59,709.76,0,718.78,0s13.73,4.59,17.51,8.28C739.7,11.6,742.17,14,747.53,14s7.82-2.4,11.23-5.72C762.54,4.59,767.25,0,776.27,0S790,4.59,793.79,8.28C797.2,11.6,799.66,14,805,14s7.82-2.4,11.23-5.72C820,4.59,824.75,0,833.76,0s13.73,4.59,17.51,8.28c3.41,3.32,5.88,5.72,11.24,5.72s7.82-2.4,11.24-5.72C877.54,4.59,882.25,0,891.26,0S905,4.59,908.78,8.28C912.19,11.6,914.65,14,920,14s7.82-2.4,11.24-5.72C935,4.59,939.74,0,948.76,0s13.73,4.59,17.51,8.28c3.41,3.32,5.88,5.72,11.23,5.72s7.82-2.4,11.23-5.72c3.79-3.69,8.5-8.28,17.51-8.28s13.73,4.59,17.51,8.28c3.41,3.32,5.88,5.72,11.24,5.72s7.82-2.4,11.23-5.72C1050,4.59,1054.74,0,1063.75,0s13.73,4.59,17.51,8.28c3.41,3.32,5.88,5.72,11.23,5.72s7.82-2.4,11.23-5.72c3.79-3.69,8.5-8.28,17.51-8.28s13.73,4.59,17.51,8.28c3.41,3.32,5.88,5.72,11.23,5.72Z" style="fill: #e6e7e8;"/>
</svg>
