<svg id="svg4488" xmlns="http://www.w3.org/2000/svg" viewBox="0 0 40.22 62.41">
  <title>interior</title>
  <g>
    <path d="M15.18,38a8,8,0,0,0,0,3.64c.49,2.63,1.69,6,2.36,9.67h5.06c.7-3.64,1.95-7,2.47-9.68a7.67,7.67,0,0,0,0-3.62,4.1,4.1,0,0,0-2-2.3h-6A4.06,4.06,0,0,0,15.18,38Z"/>
    <path d="M27,58H13.21a2.24,2.24,0,0,0-2.3,2.23v2.23h18.4V60.18A2.24,2.24,0,0,0,27,58Z"/>
    <path d="M34.14,2.23H22.41a2.3,2.3,0,0,0-4.6,0H6.07L0,27.75a5.17,5.17,0,0,1,2.63-1,4.51,4.51,0,0,1,2.92,1.38A3.15,3.15,0,0,0,7,29a3.13,3.13,0,0,0,1.45-.84,4.53,4.53,0,0,1,2.92-1.36,4.55,4.55,0,0,1,2.92,1.35,3.18,3.18,0,0,0,1.45.84,1.26,1.26,0,0,0,.58-.21,7.64,7.64,0,0,0,.87-.63,5.83,5.83,0,0,1,2-1.22,3.22,3.22,0,0,1,.93-.14A4.55,4.55,0,0,1,23,28.14a3.17,3.17,0,0,0,1.45.84,3.19,3.19,0,0,0,1.45-.85,4.54,4.54,0,0,1,2.92-1.37,4.51,4.51,0,0,1,2.92,1.37,7.76,7.76,0,0,0,.87.63,1.23,1.23,0,0,0,.57.21,3.12,3.12,0,0,0,1.44-.85,4.51,4.51,0,0,1,2.93-1.38,5.14,5.14,0,0,1,2.63,1Z"/>
    <path d="M23.52,53.5H16.66a1.11,1.11,0,1,0,0,2.23h6.9a1.11,1.11,0,1,0,0-2.23Z"/>
    <path d="M20.11,29a1.29,1.29,0,0,0-.58.21c-.16.09-.37.26-.57.41v3.73h2.3V29.63A2.65,2.65,0,0,0,20.11,29Z"/>
  </g>
</svg>
