<svg id="Layer_2" data-name="Layer 2" xmlns="http://www.w3.org/2000/svg" viewBox="0 0 24.83 24.33">
  <title>phone-icon</title>
  <g>
    <g id="UrwUhy">
      <path d="M17.32,24.33H16.21A17.24,17.24,0,0,1,5.1,18.56,19.39,19.39,0,0,1,0,6.82V5.46A3.37,3.37,0,0,1,1.07,3.37,4.5,4.5,0,0,1,3.59,1.82,3.19,3.19,0,0,1,5.82,2.89,7.54,7.54,0,0,1,6.6,5.26,8.82,8.82,0,0,1,7.08,8c-.18,1.2-1.76,1.7-2.23,2.57a16.65,16.65,0,0,0,7.47,8.35c.85-.46,1.59-1.86,2.77-1.89a5.12,5.12,0,0,1,1.41.34c.48.14.89.33,1.31.48A5.73,5.73,0,0,1,20.18,19a3.51,3.51,0,0,1,.58,2.23C20.57,22.51,18.54,23.88,17.32,24.33Z"/>
    </g>
    <path d="M12.53,1.53A10.77,10.77,0,0,1,23.3,12.3h1.53A12.3,12.3,0,0,0,12.53,0Z"/>
    <path d="M12.53,9.33v1.55a1.42,1.42,0,0,1,1.42,1.42H15.5A3,3,0,0,0,12.53,9.33Z"/>
    <path d="M12.53,6.25a6.05,6.05,0,0,1,6.06,6.05h1.59a7.64,7.64,0,0,0-7.64-7.64Z"/>
  </g>
</svg>
