<svg id="Layer_1" data-name="Layer 1" xmlns="http://www.w3.org/2000/svg" viewBox="0 0 54.16 23.18">
  <title>rocket-icon</title>
  <g>
    <path d="M40.31,5.71A48.13,48.13,0,0,0,28,4a46.41,46.41,0,0,0-7.71.62L13.46,0H0L5.81,6.19h8.45A21.81,21.81,0,0,0,7.5,9.7v3.78A24.11,24.11,0,0,0,14.43,17H5.81L0,23.18H13.46l6.82-4.69a44.33,44.33,0,0,0,7.68.65,48.26,48.26,0,0,0,12.36-1.67,10.62,10.62,0,0,1-1.92-5.88A10.6,10.6,0,0,1,40.31,5.71Z"/>
    <path d="M43.73,6.75a7.84,7.84,0,0,0-2,4.84,7.8,7.8,0,0,0,2,4.85,48.52,48.52,0,0,0,10.42-4.84A48.58,48.58,0,0,0,43.73,6.75Z"/>
  </g>
</svg>
