<svg id="Layer_1" data-name="Layer 1" xmlns="http://www.w3.org/2000/svg" viewBox="0 0 31.97 37.3">
  <title>flower-icon</title>
  <path class="cls-1" d="M16,37.3a16,16,0,0,0,16-16A16,16,0,0,0,16,37.3ZM4.63,16.43a4.44,4.44,0,0,0,7,3.66l0,.34a4.44,4.44,0,1,0,8.88,0l0-.34a4.4,4.4,0,0,0,2.51.78,4.43,4.43,0,0,0,1.9-8.44,4.43,4.43,0,1,0-4.41-7.66l0-.34a4.44,4.44,0,0,0-8.88,0l0,.34A4.39,4.39,0,0,0,9.07,4a4.43,4.43,0,0,0-1.9,8.44A4.42,4.42,0,0,0,4.63,16.43ZM16,8a4.44,4.44,0,1,1-4.44,4.44A4.44,4.44,0,0,1,16,8ZM0,21.31a16,16,0,0,0,16,16A16,16,0,0,0,0,21.31Z"/>
</svg>
