<svg id="Layer_1" data-name="Layer 1" xmlns="http://www.w3.org/2000/svg" viewBox="0 0 32.67 32.49">
  <title>gift-icon</title>
  <path d="M2.89,32.49H15.4V18.58H2.89ZM31.08,8.87H23.74A10.87,10.87,0,0,0,25.14,8a5.06,5.06,0,0,0,2.42-4,3.86,3.86,0,0,0-1.36-2.9,4.58,4.58,0,0,0-3-1.12,6,6,0,0,0-3.32,1.07,10.62,10.62,0,0,0-3.42,4.07l-.12.24a13,13,0,0,0-1-1.79,9.66,9.66,0,0,0-2.5-2.51A6,6,0,0,0,9.46,0,4.65,4.65,0,0,0,6.31,1.3,4.35,4.35,0,0,0,4.9,4.43a4.09,4.09,0,0,0,.65,2.19A6.54,6.54,0,0,0,8.18,8.87H1.59A1.59,1.59,0,0,0,0,10.46v5.9H15.4V8.87h1.87v7.49h15.4v-5.9a1.59,1.59,0,0,0-1.59-1.59M8.71,6.53A3.76,3.76,0,0,1,7.5,5.39a1.78,1.78,0,0,1-.3-1A2.05,2.05,0,0,1,7.89,3,2.37,2.37,0,0,1,9.45,2.3h0a3.68,3.68,0,0,1,2,.68,8.36,8.36,0,0,1,2.64,3.19,10.44,10.44,0,0,1,.79,2.09A14.86,14.86,0,0,1,8.71,6.53M19.25,4.9A7.38,7.38,0,0,1,21.14,3a3.69,3.69,0,0,1,2-.68h0a2.3,2.3,0,0,1,1.49.55A1.56,1.56,0,0,1,25.26,4c0,.51-.27,1.26-1.47,2.13a15.84,15.84,0,0,1-6.13,2.26A10.57,10.57,0,0,1,19.25,4.9m-2,27.59H29.78V18.58H17.27Z" transform="translate(0 0)" style="fill: #231f20"/>
</svg>
