<svg id="Layer_1" data-name="Layer 1" xmlns="http://www.w3.org/2000/svg" viewBox="0 0 101.61 34.06">
  <title>logo-footer</title>
    <path d="M19.13,21.5c-.08-2.68-.51-5.35-.48-8,0-2.17.39-4.41-.36-6.49,0-.24.1-.47.14-.71.19-1-3.27-.49-3.81.46-.34.28-.52.62-.37,1l.1.26a78.19,78.19,0,0,1-2.62,9.41c-.4,1.19-.89,2.35-1.3,3.53A35.66,35.66,0,0,1,8.79,17.5C7.42,14.07,6.18,10.6,4.5,7.3c.19-1.53-3.2-1.37-3.87,0a8.64,8.64,0,0,0-.44,5.21,45.24,45.24,0,0,1,.38,6.11c0,4,.36,7.94.42,11.92A1,1,0,0,0,.9,31.95a3.08,3.08,0,0,0,.57.55c.9.72,3.5.11,3.5-1.27C5,27.1,4.65,23,4.54,18.87c0-.4,0-.81,0-1.21l.17.43a33.8,33.8,0,0,0,2.19,4.65,21.46,21.46,0,0,1,1.8,4.68.77.77,0,0,0-.23.71c0,.18.07.29.25.36.64.55,1.84.27,2.51,0a6.07,6.07,0,0,0,.83-.42c.35-.21.88-.68.73-1.16l-.09-.28a24.34,24.34,0,0,0,1-3.93,24.91,24.91,0,0,1,1.29-4.13c.05.62.11,1.24.16,1.86.2,2.55,0,5.07,0,7.63a11.7,11.7,0,0,0,.22,2.46,10.55,10.55,0,0,1,.28,1.89A.78.78,0,0,0,16,33.83a3.32,3.32,0,0,0,2.77-.74c1.2-1.11.63-2.84.36-4.24C18.66,26.5,19.21,23.88,19.13,21.5Z" transform="translate(0 0)" fill="#231f20"/>
    <path d="M27.5,22.17c-.07-2-.77-3.86-.77-5.87a48.66,48.66,0,0,0-.15-6.89c-.11-.73-4.06.1-3.92,1a38.87,38.87,0,0,1,.16,6.35,39.16,39.16,0,0,0,.73,5.9c.27,2.05-.08,4.16.15,6.21.11,1,.75,2.74.09,3.58-.42.53,1.47.34,1.55.33a3.86,3.86,0,0,0,2.3-1c.65-.83.2-2.43.05-3.36A54.62,54.62,0,0,1,27.5,22.17Z" transform="translate(0 0)" fill="#231f20"/>
    <path d="M43.83,18.85c-2.06-2.78-5.89-.78-8.56-1.54-1.38-.39-1.39-2.27-1.39-3.4a35.22,35.22,0,0,0-.27-4.15,3.4,3.4,0,0,1,.75-2.9,4.38,4.38,0,0,1,.81-.34,8.23,8.23,0,0,1,1.07-.09c1.55-.07,4.61.23,4,2.48-.27,1,3.6.43,3.88-.64,1.21-4.6-7.28-3.71-9.69-3.08-2.21.59-4.65,1.84-4.78,4.4-.06,1.22.27,2.38.33,3.59.06,1.39-.2,2.78.29,4.12,1.08,3,5.52,1.58,7.78,1.75,3.85.29,2.7,5.47,2.75,7.88,0,1.29,1.18,3.43.21,4.51-.6.66-2,.7-2.79.77s-2.2.31-2.74-.46c-1-1.42.09-3.8-.12-5.42-.12-.92-4.07-.1-3.92,1,.34,2.63-1.4,6.14,2.4,6.6a18.09,18.09,0,0,0,7.5-.93,8.85,8.85,0,0,0,3.24-1.79c1-.94.69-2.35.42-3.55C44.32,24.78,45.73,21.42,43.83,18.85Z" transform="translate(0 0)" fill="#231f20"/>
    <path d="M61.16,18.66c-.12-3.78-.69-7.51-.71-11.3,0-2-4-1.31-4,.34,0,3.61.5,7.17.68,10.76v.22c-1.95,0-3.9.18-5.85.25.2-4.63-.61-9.23-.43-13.86,0-.58-3.87-.09-3.92,1-.17,4.47.59,8.92.45,13.39-.06,2.14-.24,4.26-.26,6.4a21.72,21.72,0,0,0,.33,3.26,8.32,8.32,0,0,1,.18,3.32c-.24.77,3.56.29,3.86-.69.54-1.78-.22-4-.41-5.84a31,31,0,0,1,.08-5.25,29.73,29.73,0,0,1,6.08,0q.13,2.07.32,4.13c.11,1.16.18,2.31.2,3.48a10.62,10.62,0,0,1-.22,3.46c-.77,2.06,3.15,1.89,3.72.36.7-1.87.5-4.2.38-6.16C61.56,23.54,61.23,21.11,61.16,18.66Z" transform="translate(0 0)" fill="#231f20"/>
    <path d="M78.09,23.14a73.73,73.73,0,0,0-3.62-7.8c1-1.95,2-3.9,2.93-5.89.83-1.81,1.45-3.82,3.08-5.09.57-.45.55-.9-.25-1a4.44,4.44,0,0,0-2.77.74,10.74,10.74,0,0,0-3.2,4.27c-.93,2.05-1.9,4.06-2.91,6.08l-.22.44a1.14,1.14,0,0,0-.64,1.27c-.79,1.56-1.6,3.12-2.5,4.61-.3-5.53-1-11.06-1.15-16.6,0-1.27-4-.48-3.92,1,.24,6.87,1.22,13.72,1.29,20.59l0,.05c-.3.31-.19.49.05.6,0,1.75-.06,3.5-.21,5.25-.47.75.46,1.14,1.08,1.14h.1c.74,0,2.63-.35,2.72-1.36.19-2.1.25-4.2.23-6.29a31.36,31.36,0,0,0,4.06-5.63,29.36,29.36,0,0,1,2,4.58c.86,2.74,2.3,5.26,3.13,8,.54,1.81,4.46.74,3.92-1C80.39,28.4,79,25.85,78.09,23.14Z" transform="translate(0 0)" fill="#231f20"/>
    <path d="M101.59,18.5c-.21-.83-1.37-.85-2.27-.77,0-.34,0-.67,0-1-.12-2.66-.16-5.38-.39-8-.21-2.46-1.58-3.34-4-3.25a24.28,24.28,0,0,0-7.48,1.4,7,7,0,0,0-4.56,5.68c-.55,3,.24,6.22.37,9.25.15,3.5.07,7,.06,10.52,0,.57,3.92,0,3.92-1,0-2.78,0-5.55,0-8.33,0-.82-.05-1.63-.1-2.44,1.37-.59,3.69,0,5.05.14a15.29,15.29,0,0,0,3.24-.29c0,2.31.11,4.63.2,6.94,0,1.18.48,3.53-.35,4.51-.44.52,1.48.34,1.55.33a4,4,0,0,0,2.3-1c.95-1.12.46-3.79.4-5.13-.08-1.91-.1-3.82-.14-5.74C100.54,20.06,101.81,19.35,101.59,18.5ZM87,18.35c-.1-1.25-.22-2.49-.3-3.74-.16-2.33.12-5.58,2.29-7a7.14,7.14,0,0,1,2.35-.44,3.67,3.67,0,0,1,2.83.19c1.21.8.91,3.66.91,4.87,0,2,.21,4,.31,6a13.68,13.68,0,0,1-1.68.08C91.39,18.26,89.14,17.9,87,18.35Z" transform="translate(0 0)" fill="#231f20"/>
    <path d="M24.11,6.7a3.16,3.16,0,0,0,1.48-.52L25.84,6c.52-.34,1-.83.73-1.36a7.72,7.72,0,0,1-.42-3.41c0-1-1-1.25-1.78-1.17S22.2.59,22.2,1.53a16.06,16.06,0,0,0,.11,3,2.56,2.56,0,0,0-.1.36.69.69,0,0,0,.14.59s0,.09,0,.13v.33a.9.9,0,0,0,.43.53A2.18,2.18,0,0,0,24.11,6.7Z" transform="translate(0 0)" fill="#231f20"/>
</svg>
