<svg id="Layer_1" data-name="Layer 1" xmlns="http://www.w3.org/2000/svg" viewBox="0 0 66 100.8">
  <title>map-pin</title>
  <path d="M56.33,9.23a34.11,34.11,0,0,0-46.67,0,30.48,30.48,0,0,0,0,44.54S33,75.6,33,100.8c0-25.2,23.34-47,23.34-47A30.48,30.48,0,0,0,56.33,9.23Z" transform="translate(0 0)" style="fill: #ffffff;"/>
  <path d="M47,45.52c-.64-3.28.13-6.95,0-10.28-.12-3.76-.71-7.48-.66-11.25,0-3,.54-6.17-.5-9.09.07-.33.13-.66.2-1,.27-1.46-4.58-.69-5.34.65-.48.39-.73.86-.52,1.34.05.12.1.24.14.37A109.42,109.42,0,0,1,36.7,29.43c-.56,1.66-1.24,3.29-1.82,4.95a49.64,49.64,0,0,1-2.3-4.73c-1.92-4.81-3.66-9.66-6-14.28.27-2.14-4.48-1.92-5.42,0-1.13,2.37-1,4.76-.61,7.3a63.39,63.39,0,0,1,.53,8.55c.07,5.57.5,11.12.58,16.68a1.4,1.4,0,0,0-.13,1.92,4.26,4.26,0,0,0,.8.77c1.27,1,4.9.15,4.89-1.78,0-5.77-.44-11.53-.59-17.3,0-.56,0-1.13,0-1.69l.24.61A47.23,47.23,0,0,0,29.91,37a30,30,0,0,1,2.52,6.55,1.08,1.08,0,0,0-.33,1c-.05.25.1.41.35.5.89.77,2.58.38,3.51,0a8.37,8.37,0,0,0,1.16-.59c.48-.3,1.24-1,1-1.62L38,42.42a34.22,34.22,0,0,0,1.35-5.5,34.86,34.86,0,0,1,1.81-5.79c.07.87.15,1.73.22,2.6.29,3.57,0,7.1,0,10.67a16.29,16.29,0,0,0,.31,3.45,14.78,14.78,0,0,1,.39,2.64,1.09,1.09,0,0,0,.54,2,4.65,4.65,0,0,0,3.88-1C48.21,49.91,47.41,47.48,47,45.52Z" transform="translate(0 0)" style="fill: #6bc6b3;"/>
</svg>
