<svg id="Layer_1" data-name="Layer 1" xmlns="http://www.w3.org/2000/svg" viewBox="0 0 148.01 72.72"><title>mishka-logo--main</title><g id="Layer_2" data-name="Layer 2"><g>
<path d="M143.16,31.4a39,39,0,0,1-4.66,2.78,17.33,17.33,0,0,0-.59-5.13l.15-1c.38-3,.66-7.12-2-9.22-.33-.26-1.25,0-1.92.27a4.57,4.57,0,0,0-.5-.41q-.12-.36-.23-.74c0-.12-.17-.19-.36-.21.29-.38.26-.82-.42-1.09-.38-.15-.76-.29-1.14-.41-.07-.07-.13-.1-.17-.06h0a22.22,22.22,0,0,0-2.86-.71,5.1,5.1,0,0,1,.55-1,5,5,0,0,1,.43-.44l.19-.17.07-.06.08-.06c.38-.29.85-.86.22-1.2a2.1,2.1,0,0,0-2,.24,6.57,6.57,0,0,0-2.09,2.36,50.07,50.07,0,0,0-6.08-.08.77.77,0,0,0,.14-.25c.18-.58-.91-.52-1.19-.49l-4.69.6c1.37-3.77,3.08-8.58,1-12.26C113.89.55,111.18.08,109,0a13.71,13.71,0,0,0-7,1.64c-4.76,2.62-7.11,7.71-8.21,13.14a1.84,1.84,0,0,0-2.57.38l-.07.09c-.12.32-.23.64-.33,1a1.46,1.46,0,0,0-.34.64v.17h-.2l.06-.31a.68.68,0,0,0,.28-.37c.57-2.3,1.16-4.59,1.95-6.82.27-.76-2.51-.4-2.8.43-.42,1.19-.79,2.4-1.12,3.62a.91.91,0,0,0-.43.33V14a.9.9,0,0,0-.47-.18v-1c0-.43-2.82,0-2.82.76V15.2a2.34,2.34,0,0,0-.47.27l-.19.17a.37.37,0,0,0-.12.24L84,16l-.05.07a.31.31,0,0,0,0,.44l0,0a1.13,1.13,0,0,0,.74.16h.15v.47h-.67l-.41,0c0-.39-.68-.45-1.35-.33a.54.54,0,0,0,0-.15c-.1-.6-.17-1.19-.23-1.79a3.1,3.1,0,0,0,.68-.31c.16-.1.33-.22.33-.43v-.19c0-.18-.41-.2-.5-.21a2.81,2.81,0,0,0-.59,0c-.1-1.33-.1-2.64-.1-3.95,0-.84-2.82-.31-2.82.76a51.55,51.55,0,0,0,.19,5.34H79.1V14.34c0-1-1.3-1.22-2.15-.81a1,1,0,0,0,.37-1,30.28,30.28,0,0,1-1-4.29c-.19-1.39-3-.68-2.82.76a30.21,30.21,0,0,0,1,4.29c.24.83,1.34.89,2.1.51a1,1,0,0,0-.37.76v.63a1.65,1.65,0,0,0-.77-.16c-1.06,0-1.67.89-1.4,1.48l-.49-.08a14.1,14.1,0,0,1-.71-3.83c0-.94-1.27-1-2.11-.67a.57.57,0,0,0,0-.17A13,13,0,0,1,70,9.23c-.33-1.35-3.16-.6-2.82.76a19.66,19.66,0,0,0,.52,1.9h-.06a2.65,2.65,0,0,0-.85.39c-.83.08-1.83.56-1.75,1.21.06.48.13,1,.21,1.43l-1.64.26A11.88,11.88,0,0,1,63,12.74c-.13-.92-1.56-.85-2.33-.26a22.54,22.54,0,0,0-3.12-5.76A11.26,11.26,0,0,0,46.17,2.87a9,9,0,0,0-5,2.65A5.94,5.94,0,0,0,40,10.32a19.12,19.12,0,0,0,1.58,6,2.47,2.47,0,0,0-1,.14c-.28.12-.56.25-.83.39-1.94,0-3.88,0-5.8-.07-4.18-.19-8.3-.86-12.5-.74A1.35,1.35,0,0,0,20,17.3a4.31,4.31,0,0,0-2.14,2.29,54,54,0,0,0-5.33-3.21c-.69-.35-3.3.71-2.29,1.22a53,53,0,0,1,5.28,3.22,2.19,2.19,0,0,0,1.84-.07l.16-.08a9.72,9.72,0,0,0,.24,4.49.56.56,0,0,0,.17.27,9.39,9.39,0,0,0,0,1v.17a1.2,1.2,0,0,0-.76.84,37.37,37.37,0,0,0-.31,4.23,1.09,1.09,0,0,0-.48.8,49.93,49.93,0,0,0,.47,10,72.7,72.7,0,0,0,1.17,8q.09.62.17,1.25A9.69,9.69,0,0,0,18,55.2c-.88.17-1.73.87-1.23,1.62a9.1,9.1,0,0,0,2.61,2.65A2.31,2.31,0,0,0,17.5,60c-.82.81-1.71,1.53-2.53,2.34a.59.59,0,0,0,.29,1.08,2.3,2.3,0,0,0,2-.54c.82-.81,1.72-1.53,2.53-2.34a.64.64,0,0,0,.2-.73c3.15,1.67,7.18,1.17,11,.88a34.53,34.53,0,0,0-2.17,5c-.26.72,2.51.37,2.8-.44a33.31,33.31,0,0,1,2.1-4.9c3.74.12,7.48.12,11.21,0a1.08,1.08,0,0,0,.75.34,34.47,34.47,0,0,0,9.69-.7c4.79-.23,9.58-.53,14.37-.81,7.53-.19,15.06-.35,22.59-.32l.31.32a1.31,1.31,0,0,0,1,.33h.2c.71,0,1.43.09,2.14.15a1.82,1.82,0,0,0,.56,0h0l2.35.21a1.15,1.15,0,0,0,.79.36c3.8.25,7.61.52,11.42.7a1,1,0,0,0,.82.34c7.07.06,15.28,2.8,21.56-1.74.5-.36.27-.88-.26-1h-.33A60.74,60.74,0,0,0,135.84,50a1.08,1.08,0,0,0,.65-.86,34.42,34.42,0,0,1,.37-3.64q.25-1.33.44-2.66c.39-2.17.81-4.37,1-6.54a50.09,50.09,0,0,0,6.7-3.82C146.56,31.42,144.21,30.65,143.16,31.4Zm-55.33-15-.13.12q.11-.47.23-.93H88Z" transform="translate(0 0.01)"/>
<path d="M63.26,12.63c.13.2.56.22.75.22a2.94,2.94,0,0,0,1.11-.22c.4-.17,1.1-.56.77-1.07s-.61-1.19-1-1.75c-.13-.2-.56-.22-.75-.22a2.92,2.92,0,0,0-1.1.23c-.4.17-1.1.56-.77,1.07S62.9,12.06,63.26,12.63Z" transform="translate(0 0.01)"/>
<path d="M20.68,10.91c.22.65,1.11.65,1.65.5s1.39-.62,1.17-1.26a4.66,4.66,0,0,0-.89-1.78,1.71,1.71,0,0,0-1.9-.15c-.41.19-1.18.84-.69,1.35A3.09,3.09,0,0,1,20.68,10.91Z" transform="translate(0 0.01)"/>
<path d="M30.66,13.89c.84,0,3.07-1.28,1.19-1.28C31,12.62,28.77,13.89,30.66,13.89Z" transform="translate(0 0.01)"/>
<path d="M122.56,12.27a2.3,2.3,0,0,0,1.05-.06,2.15,2.15,0,0,0,.94-.48,5.06,5.06,0,0,0,1-1.18c.1-.2.17-.4,0-.59a1.1,1.1,0,0,0-.76-.25,2.69,2.69,0,0,0-1.11.22,1.55,1.55,0,0,0-.76.55,3,3,0,0,1-.35.51h0l-.2.2c-.16.16-.35.36-.28.61A.64.64,0,0,0,122.56,12.27Z" transform="translate(0 0.01)"/>
<path d="M135.86,17.69a3.62,3.62,0,0,0,1.89-.66,21.16,21.16,0,0,0,3.62-3.64c.29-.39-1-.24-1.12-.23a2.73,2.73,0,0,0-1.66.75,19.69,19.69,0,0,1-3.39,3.37C134.71,17.69,135.65,17.71,135.86,17.69Z" transform="translate(0 0.01)"/>
<path d="M146.74,44.77h-4.87a1.6,1.6,0,0,0-1.56,1.14c-.09.74.75.92,1.3.92h4.87A1.61,1.61,0,0,0,148,45.69C148.13,45,147.29,44.77,146.74,44.77Z" transform="translate(0 0.01)"/>
<path d="M57,60.78c-.5.08-1.41.3-1.64.83A34.63,34.63,0,0,0,54,65.51c-.21.73,2.57.33,2.8-.45a34.64,34.64,0,0,1,1.36-3.9C58.4,60.64,57.21,60.75,57,60.78Z" transform="translate(0 0.01)"/>
<path d="M61.6,63.37a4.54,4.54,0,0,0-2,.54c-.14.08-.34.2-.34.39a3.16,3.16,0,0,1,0,.35.75.75,0,0,1-.12.29h0c-.06.08-.11.18,0,.25a1.27,1.27,0,0,0,.71.06A4.72,4.72,0,0,0,61,65a2.06,2.06,0,0,0,.79-.41,1,1,0,0,0,.28-.5,2.67,2.67,0,0,0,0-.53C62.09,63.38,61.67,63.38,61.6,63.37Z" transform="translate(0 0.01)"/>
<path d="M116.65,67.05c-.35-.69-3,.33-2.82.76.84,1.64,1.94,3.12,2.92,4.68.44.69,3-.41,2.82-.76C118.59,70.17,117.5,68.69,116.65,67.05Z" transform="translate(0 0.01)"/>
<path d="M120.74,64.71c-.29-.59-1.07-.56-1.62-.41-.35.09-1.49.6-1.2,1.17l1.17,2.34c.29.59,1.07.56,1.62.41.35-.09,1.49-.6,1.2-1.17Z" transform="translate(0 0.01)"/>
<path d="M5.67,43.11c-1.49.36-3,.57-4.48,1-.54.15-1.34.64-1.16,1.32s1.13.71,1.66.56c1.48-.4,3-.62,4.48-1,.54-.13,1.34-.65,1.16-1.32S6.21,43,5.67,43.11Z" transform="translate(0 0.01)"/>
</g>
</g>
<g id="Layer_1-2" data-name="Layer 1-2">
<g>
<path d="M43.75,40.11c-.08-2.71-.51-5.4-.48-8.11,0-2.19.39-4.45-.36-6.55a4.57,4.57,0,0,1,.14-.72c.2-1.06-3.3-.5-3.85.47a.86.86,0,0,0-.38,1l.1.26A79,79,0,0,1,36.27,36c-.41,1.2-.9,2.37-1.31,3.57a35.78,35.78,0,0,1-1.66-3.41c-1.39-3.46-2.64-7-4.33-10.3.19-1.54-3.23-1.38-3.91,0a8.72,8.72,0,0,0-.44,5.26A45.74,45.74,0,0,1,25,37.24c0,4,.36,8,.42,12a1,1,0,0,0-.09,1.39,3.16,3.16,0,0,0,.58.55c.91.73,3.53.11,3.53-1.28,0-4.16-.31-8.31-.42-12.47V36.21l.17.44a34.29,34.29,0,0,0,2.2,4.7,21.58,21.58,0,0,1,1.82,4.72.78.78,0,0,0-.23.71.34.34,0,0,0,.25.36c.64.55,1.86.28,2.53,0a6.18,6.18,0,0,0,.83-.43c.35-.21.89-.69.73-1.17l-.09-.28a24.52,24.52,0,0,0,1-4,25.08,25.08,0,0,1,1.31-4.17c0,.62.11,1.25.16,1.87.21,2.58,0,5.12,0,7.7a11.74,11.74,0,0,0,.22,2.48A10.67,10.67,0,0,1,40.2,51a.78.78,0,0,0,.39,1.45,3.35,3.35,0,0,0,2.79-.75c1.21-1.12.64-2.87.36-4.28C43.27,45.16,43.83,42.51,43.75,40.11Z" transform="translate(0 0.01)" fill="#fff"/>
<path d="M52.19,40.79c-.07-2-.77-3.9-.78-5.93a49.11,49.11,0,0,0-.16-7c-.11-.73-4.09.1-4,1.06a39.26,39.26,0,0,1,.16,6.41,39.49,39.49,0,0,0,.74,6c.27,2.07-.09,4.2.15,6.27.11,1,.76,2.77.09,3.61-.42.54,1.48.34,1.57.33a3.9,3.9,0,0,0,2.32-1c.66-.83.2-2.45,0-3.39A55.43,55.43,0,0,1,52.19,40.79Z" transform="translate(0 0.01)" fill="#fff"/>
<path d="M68.67,37.44c-2.08-2.81-5.94-.79-8.64-1.55-1.39-.4-1.41-2.29-1.4-3.43a35.46,35.46,0,0,0-.28-4.18,3.44,3.44,0,0,1,.75-2.93,4.36,4.36,0,0,1,.82-.34,8,8,0,0,1,1.08-.1c1.56-.07,4.65.23,4.06,2.51-.27,1,3.63.44,3.91-.64,1.22-4.64-7.35-3.75-9.77-3.11-2.23.59-4.69,1.86-4.82,4.44-.06,1.23.27,2.4.33,3.62.06,1.4-.2,2.8.29,4.15,1.09,3,5.57,1.59,7.85,1.76,3.88.29,2.72,5.52,2.77,8,0,1.3,1.19,3.46.21,4.55-.6.67-2,.71-2.82.77s-2.22.32-2.77-.46c-1-1.43.09-3.83-.12-5.47-.12-.93-4.1-.1-4,1.06.35,2.65-1.41,6.2,2.42,6.65a18.24,18.24,0,0,0,7.57-.94A8.91,8.91,0,0,0,69.38,50c1-1,.7-2.37.42-3.58C69.17,43.42,70.59,40,68.67,37.44Z" transform="translate(0 0.01)" fill="#fff"/>
<path d="M86.15,37.25c-.12-3.81-.7-7.58-.71-11.4,0-2-4-1.32-4,.35,0,3.64.5,7.23.69,10.86v.22c-2,0-3.93.18-5.9.25.2-4.68-.62-9.31-.44-14,0-.59-3.91-.09-4,1.06-.17,4.52.59,9,.46,13.51-.06,2.15-.25,4.3-.26,6.46a21.88,21.88,0,0,0,.33,3.29,8.4,8.4,0,0,1,.18,3.35c-.24.78,3.59.29,3.9-.7.55-1.79-.22-4.08-.41-5.89a31,31,0,0,1,.08-5.3,30,30,0,0,1,6.13,0q.13,2.09.32,4.17c.11,1.17.18,2.33.2,3.51a10.66,10.66,0,0,1-.22,3.49c-.78,2.08,3.18,1.91,3.76.37.71-1.89.51-4.24.39-6.22C86.56,42.17,86.23,39.72,86.15,37.25Z" transform="translate(0 0.01)" fill="#fff"/>
<path d="M103.24,41.76a74.52,74.52,0,0,0-3.65-7.87c1-2,2-3.93,3-5.94.84-1.82,1.46-3.85,3.11-5.14.58-.45.55-.9-.26-1a4.49,4.49,0,0,0-2.79.75,10.84,10.84,0,0,0-3.23,4.31c-1,2.13-2,4.13-3,6.13l-.23.45a1.16,1.16,0,0,0-.64,1.28c-.8,1.58-1.61,3.15-2.52,4.65-.3-5.58-1-11.16-1.16-16.75,0-1.28-4-.48-4,1.06.25,6.93,1.23,13.85,1.3,20.77v0c-.3.31-.19.5.05.61,0,1.77-.06,3.53-.21,5.3-.48.75.47,1.15,1.09,1.15h.1c.75,0,2.65-.35,2.74-1.38a63.31,63.31,0,0,0,.23-6.35,31.7,31.7,0,0,0,4.09-5.69,29.78,29.78,0,0,1,2,4.62c.87,2.77,2.32,5.31,3.16,8.09.55,1.82,4.5.75,4-1.06C105.56,47.07,104.18,44.5,103.24,41.76Z" transform="translate(0 0.01)" fill="#fff"/>
<path d="M127,37.08c-.21-.84-1.38-.86-2.29-.78v-1c-.13-2.69-.17-5.43-.4-8.1-.21-2.48-1.6-3.37-4-3.28a24.49,24.49,0,0,0-7.55,1.42,7.06,7.06,0,0,0-4.6,5.73c-.56,3,.24,6.27.38,9.33.16,3.54.07,7.08.06,10.61,0,.58,4,0,4-1.06v-8.4c0-.83-.05-1.65-.1-2.47,1.38-.6,3.72,0,5.1.14a15.32,15.32,0,0,0,3.27-.29c0,2.33.11,4.68.21,7,0,1.19.48,3.56-.36,4.55-.44.52,1.49.35,1.57.33a4,4,0,0,0,2.32-1c1-1.13.46-3.82.41-5.17-.08-1.93-.1-3.86-.14-5.79C125.9,38.66,127.18,37.94,127,37.08Zm-14.75-.15c-.1-1.26-.22-2.51-.31-3.78-.16-2.35.12-5.63,2.31-7.06a7.22,7.22,0,0,1,2.38-.44,3.7,3.7,0,0,1,2.85.19c1.22.81.92,3.69.92,4.91,0,2,.21,4,.31,6.06a13.84,13.84,0,0,1-1.7.08c-2.34-.05-4.62-.42-6.8,0Z" transform="translate(0 0.01)" fill="#fff"/>
<path d="M48.77,25.18a3.19,3.19,0,0,0,1.49-.53l.26-.22c.52-.34,1-.83.73-1.37a7.79,7.79,0,0,1-.42-3.45c0-1-1-1.26-1.8-1.18S46.85,19,46.84,20A16.07,16.07,0,0,0,47,23a2.34,2.34,0,0,0-.1.36A.7.7,0,0,0,47,24v.47a.91.91,0,0,0,.43.53A2.19,2.19,0,0,0,48.77,25.18Z" transform="translate(0 0.01)" fill="#fff"/>
</g>
</g>
</svg>
