<svg id="Layer_2" data-name="Layer 2" xmlns="http://www.w3.org/2000/svg" viewBox="0 0 85.59 35.03">
  <title>mishka-logo--mobile</title>
  <g>
    <path d="M4.18,26.3c0-3.47-.26-6.94-.36-10.41,0-.34,0-.68,0-1l.15.36a28.71,28.71,0,0,0,1.84,3.92,18.05,18.05,0,0,1,1.52,3.94.65.65,0,0,0-.2.6c0,.15.06.25.21.31.54.46,1.55.23,2.11,0a5.3,5.3,0,0,0,.7-.36c.29-.18.74-.57.61-1l-.07-.24a20.41,20.41,0,0,0,.81-3.31,21,21,0,0,1,1.09-3.49c0,.52.09,1,.13,1.57.17,2.15,0,4.27,0,6.42a9.93,9.93,0,0,0,.18,2.08,8.59,8.59,0,0,1,.24,1.59.65.65,0,0,0,.33,1.21,2.8,2.8,0,0,0,2.33-.62c1-.93.53-2.4.3-3.57-.38-2,.08-4.18,0-6.19-.07-2.26-.43-4.5-.4-6.77,0-1.83.33-3.71-.3-5.47,0-.2.08-.4.12-.6.16-.88-2.75-.41-3.21.39-.29.24-.44.52-.31.81,0,.07.06.15.08.22a65.71,65.71,0,0,1-2.21,7.93c-.34,1-.75,2-1.09,3A30,30,0,0,1,7.4,14.74c-1.16-2.89-2.2-5.81-3.61-8.6C4,4.86,1.1,5,.53,6.17a7.29,7.29,0,0,0-.37,4.39,38.12,38.12,0,0,1,.32,5.15c0,3.35.3,6.69.35,10a.85.85,0,0,0-.08,1.16,2.51,2.51,0,0,0,.48.46C2,28,4.18,27.46,4.18,26.3Z" transform="translate(0 0)"/>
    <path d="M22.38,7.93c-.09-.61-3.42.08-3.3.88a33,33,0,0,1,.14,5.35,32.82,32.82,0,0,0,.62,5c.23,1.73-.07,3.5.13,5.24.09.81.63,2.31.07,3-.35.45,1.24.29,1.31.28a3.26,3.26,0,0,0,1.94-.87c.55-.7.17-2,0-2.83a46.29,46.29,0,0,1-.16-5.29c-.06-1.68-.64-3.25-.65-4.95A40.92,40.92,0,0,0,22.38,7.93Z" transform="translate(0 0)"/>
    <path d="M25.5,14.57c.91,2.51,4.65,1.33,6.55,1.47,3.24.24,2.27,4.61,2.31,6.64,0,1.08,1,2.89.18,3.8-.5.56-1.67.59-2.35.65s-1.85.26-2.31-.39c-.84-1.19.08-3.2-.1-4.57-.1-.78-3.42-.08-3.3.88.29,2.21-1.18,5.17,2,5.56a15.2,15.2,0,0,0,6.32-.78,7.44,7.44,0,0,0,2.73-1.51c.87-.79.58-2,.35-3-.57-2.46.62-5.29-1-7.45-1.74-2.34-5-.66-7.21-1.3-1.16-.33-1.17-1.91-1.17-2.86a30,30,0,0,0-.23-3.49,2.87,2.87,0,0,1,.63-2.45,3.77,3.77,0,0,1,.68-.29,6.91,6.91,0,0,1,.9-.08c1.3-.06,3.88.2,3.39,2.09-.23.85,3,.36,3.27-.54C38.18,3.1,31,3.84,29,4.38c-1.86.49-3.92,1.55-4,3.7-.05,1,.23,2,.27,3A11.23,11.23,0,0,0,25.5,14.57Z" transform="translate(0 0)"/>
    <path d="M40,16.44c-.05,1.8-.21,3.59-.22,5.39A18.31,18.31,0,0,0,40,24.59a7,7,0,0,1,.15,2.8c-.2.65,3,.24,3.25-.59.46-1.5-.19-3.4-.34-4.92a26,26,0,0,1,.07-4.42,25.12,25.12,0,0,1,5.12,0c.08,1.16.16,2.32.27,3.48.09,1,.15,1.95.16,2.93a8.9,8.9,0,0,1-.18,2.91c-.65,1.73,2.66,1.59,3.14.31A13.12,13.12,0,0,0,52,21.89c-.13-2.06-.4-4.11-.47-6.17-.1-3.18-.58-6.33-.59-9.52,0-1.66-3.34-1.1-3.33.29,0,3,.42,6,.57,9.07,0,.06,0,.12,0,.18-1.64,0-3.28.15-4.93.21.17-3.9-.51-7.77-.36-11.67,0-.49-3.26-.08-3.3.88C39.43,8.93,40.07,12.67,40,16.44Z" transform="translate(0 0)"/>
    <path d="M54,21.82c-.25.26-.16.41,0,.51,0,1.47,0,2.95-.18,4.42-.4.63.39,1,.91,1h.08c.62,0,2.21-.29,2.29-1.15.16-1.77.21-3.54.2-5.3a26.55,26.55,0,0,0,3.42-4.75,25,25,0,0,1,1.68,3.86c.72,2.31,1.94,4.43,2.64,6.75.46,1.52,3.75.62,3.3-.88-.7-2.32-1.86-4.46-2.64-6.75a62.13,62.13,0,0,0-3-6.57c.84-1.64,1.7-3.28,2.47-5,.7-1.52,1.22-3.22,2.59-4.29.48-.38.46-.75-.22-.8a3.71,3.71,0,0,0-2.33.62,9,9,0,0,0-2.69,3.59c-.78,1.73-1.6,3.42-2.46,5.12l-.19.37a1,1,0,0,0-.54,1.06C58.7,15,58,16.27,57.26,17.53c-.25-4.66-.8-9.32-1-14,0-1.07-3.34-.4-3.3.89.2,5.79,1,11.56,1.08,17.34Z" transform="translate(0 0)"/>
    <path d="M85.57,15.58c-.18-.7-1.16-.72-1.91-.65,0-.28,0-.57,0-.85-.11-2.24-.14-4.53-.33-6.76C83.12,5.25,82,4.51,80,4.59a20.39,20.39,0,0,0-6.3,1.18,5.88,5.88,0,0,0-3.84,4.78c-.46,2.54.2,5.24.31,7.79.13,3,.06,5.91.05,8.86,0,.48,3.3,0,3.3-.88,0-2.34,0-4.68,0-7,0-.69,0-1.37-.08-2.06,1.16-.5,3.11,0,4.25.12a12.78,12.78,0,0,0,2.73-.24c0,1.95.09,3.91.17,5.85,0,1,.4,3-.3,3.8-.37.44,1.25.29,1.31.28a3.33,3.33,0,0,0,1.94-.88c.8-.94.38-3.19.34-4.32-.07-1.61-.09-3.22-.12-4.83C84.69,16.89,85.75,16.3,85.57,15.58Zm-6.66-.16a24.76,24.76,0,0,0-5.65,0c-.09-1.05-.18-2.1-.25-3.15-.13-2,.1-4.7,1.93-5.9a6.08,6.08,0,0,1,2-.37,3.09,3.09,0,0,1,2.38.16c1,.68.77,3.08.77,4.1,0,1.69.18,3.37.26,5.06A11.92,11.92,0,0,1,78.91,15.42Z" transform="translate(0 0)"/>
    <path d="M18.7,4.11a.58.58,0,0,0,.12.5s0,.08,0,.11V5a.76.76,0,0,0,.36.45,1.83,1.83,0,0,0,1.11.2,2.68,2.68,0,0,0,1.25-.44L21.77,5c.44-.28.82-.7.61-1.15A6.48,6.48,0,0,1,22,1c0-.81-.81-1.05-1.5-1S18.7.5,18.7,1.29a13.27,13.27,0,0,0,.09,2.52A1.73,1.73,0,0,0,18.7,4.11Z" transform="translate(0 0)"/>
    <path d="M80.28,33.29a19.74,19.74,0,0,0-4.85-.79c-1.6-.17-3.25-.41-4.88-.56-1.64.05-3.31,0-5,.13l-4.88.27c-6.49.29-13,.25-19.52.11S28.13,32,21.55,32c-3.29,0-6.57.1-9.86.25-1.63.28-3.24.5-4.9.91A30.91,30.91,0,0,1,2,34.2a23.16,23.16,0,0,0,5,.3c1.58,0,3.24.14,4.87.23,3.23-.17,6.49-.25,9.73-.26,6.49,0,13,.33,19.57.45s13.11.19,19.68-.11l4.91-.27c1.6-.07,3.2-.13,4.83-.07,1.63-.15,3.25-.33,4.92-.53a22.66,22.66,0,0,1,4.85-.51h.07v-.05a3.32,3.32,0,0,0,0-.48C80.31,33,80.31,33.17,80.28,33.29Z" transform="translate(0 0)"/>
  </g>
</svg>
