<svg id="Laag_1" data-name="Laag 1" xmlns="http://www.w3.org/2000/svg" viewBox="0 0 100.68 76.89">
  <title>play-button</title>
  <g>
    <path d="M344.25,400.71s-.92-7-3.79-10.08c-3.63-4-7.67-4.07-9.54-4.3-13.33-1-33.3-1-33.3-1h-.05s-20,0-33.3,1c-1.87.23-5.91.26-9.54,4.3-2.84,3.1-3.79,10.08-3.79,10.08s-.9,8.21-.9,16.42v7.7a164.22,164.22,0,0,0,.95,16.42s.92,7,3.79,10.08c3.63,4,8.36,3.91,10.49,4.35,7.62.77,32.36,1,32.36,1s20,0,33.33-1c1.87-.23,5.91-.26,9.54-4.3,2.84-3.07,3.79-10.08,3.79-10.08a164.37,164.37,0,0,0,.95-16.42v-7.7C345.2,408.92,344.25,400.71,344.25,400.71Z" transform="translate(-247.3 -382.56)" style="fill: #63d1bb"/>
    <path d="M297.61,459.45h0c-1,0-24.95-.27-32.6-1h-.14l-.14,0c-.27-.06-.67-.11-1.13-.17-2.5-.33-7.16-.94-10.84-5-3.35-3.62-4.38-10.77-4.48-11.58v0a165.51,165.51,0,0,1-1-16.74v-7.7c0-8.27.88-16.38.91-16.72v-.07c.11-.8,1.16-7.93,4.47-11.56a15.43,15.43,0,0,1,10.71-5.12l.53-.06h.13c13.28-1,33.31-1,33.51-1h.05c.2,0,20.24,0,33.51,1h.13l.53.06a15.43,15.43,0,0,1,10.7,5.11c3.35,3.62,4.38,10.77,4.48,11.58v0c0,.34,1,8.46,1,16.75v7.71a165.47,165.47,0,0,1-1,16.74v.05c-.11.81-1.16,8-4.48,11.56a15.43,15.43,0,0,1-10.71,5.12l-.53.06h-.13c-13.28,1-33.33,1.06-33.53,1.06ZM265.67,453c7.48.73,31.22,1,32,1s20.13,0,33-1l.58-.06a10,10,0,0,0,7.19-3.33l0,0c1.83-2,2.85-6.93,3.08-8.55.06-.51.93-8.36.93-16.08v-7.7c0-7.76-.9-15.63-1-16.11-.32-2.38-1.43-6.79-3.07-8.54l0,0a10,10,0,0,0-7.19-3.34l-.58-.06c-13.07-1-32.83-1-33-1h-.05c-.2,0-20,0-33,1l-.58.06a10,10,0,0,0-7.19,3.34l0,0c-1.83,2-2.86,6.92-3.08,8.55-.06.59-.87,8.4-.87,16.09v7.7c0,7.75.87,15.6.93,16.08.32,2.38,1.43,6.79,3.07,8.54l0,0c2.32,2.58,5.3,3,7.48,3.26C264.79,452.81,265.25,452.87,265.67,453Z" transform="translate(-247.3 -382.56)" style="fill: #fff"/>
  </g>
  <polygon points="38.43 20.58 38.43 56.29 68.18 38.43 38.43 20.58" style="fill: #fff"/>
</svg>
