<svg id="Layer_1" data-name="Layer 1" xmlns="http://www.w3.org/2000/svg" viewBox="0 0 23.49 20.17">
  <title>social-twitter</title>
  <g id="twitter">
    <path d="M23.45,4.08c-.23-.37-.91-.28-1.41-.37H20.93a8.34,8.34,0,0,1,.52-1,5.42,5.42,0,0,0,.22-1.26c.13-.17.18-.42.3-.59s.24-.48.07-.67S21.75,0,21.45,0a.51.51,0,0,0-.22.15c-.45.43-.78,1-1.26,1.41H19.9c-.09,0,0,0-.08.07l-.37.22a3,3,0,0,1-.89.52A6.08,6.08,0,0,0,16.71,2a6.44,6.44,0,0,0-3,.74,7.32,7.32,0,0,0-2.15,1.63c0,.32-.34.4-.37.74,0,0,0,.09-.07.07,0,.24-.05.34-.07.52s.2.43,0,.52a7.15,7.15,0,0,1-2.15-1A10.15,10.15,0,0,1,6.78,4.16,6,6,0,0,1,5,2.82c-.21-.31-.54-.5-.67-.89C4,1.77,4.16,1,3.59,1c-.32,0-.34.2-.44.37s-.36.23-.37.52c0,0,0,.09-.07.08a17.77,17.77,0,0,0-.52,3.26,3.07,3.07,0,0,0,.59,1,1.11,1.11,0,0,0-.89.52,3.72,3.72,0,0,0,.74,2.3,2.94,2.94,0,0,0,.59,1c0,.23.21.29.3.45s.12.13.15.22.29.18.07.22c-.41.13-1,.07-1.26.37a1.92,1.92,0,0,0,0,1.11c0,.24.28.26.3.52a18.31,18.31,0,0,0,1.63,1.11,15.23,15.23,0,0,0,1.85.37,1.44,1.44,0,0,1-.59.74,19.23,19.23,0,0,1-2.74.74c-.56,0-1,.23-1.56.22-.33.13-.85.08-1.11.22s-.1.1-.22.22a.72.72,0,0,0,.44.89c0,.25.22.28.37.37a.8.8,0,0,0,.44.37,10.58,10.58,0,0,0,1.93,1.11c.83.18,1.65.38,2.52.52s1.9.12,2.82.22h1a9.91,9.91,0,0,0,1.85.07c.09-.1.32-.07.52-.07a9.28,9.28,0,0,0,1.63-.74c.57-.24,1-.64,1.56-.89a10,10,0,0,0,2.52-2.37,1.66,1.66,0,0,0,.45-.74c.26-.16.38-.45.59-.67a9.92,9.92,0,0,0,1-1.41c.32-.5.58-1.05.89-1.56,0-.41.31-.48.3-.89.19-.23.18-.66.37-.89a1.38,1.38,0,0,1,.07-.59A12.15,12.15,0,0,0,21,5.94a5.74,5.74,0,0,0,1.63-.59C23.17,5.16,23.64,4.76,23.45,4.08ZM20,8.16a4.73,4.73,0,0,1-1,2c.06.38-.1.54-.07.89a4.31,4.31,0,0,0-.37,1c-.2.27-.33.61-.52.89-.37.55-.78,1.05-1.19,1.56s-.91,1-1.33,1.48-.94.88-1.41,1.33a5,5,0,0,0-1.26.67,5,5,0,0,0-.67.3c-.18.15-.5.14-.67.3A24,24,0,0,1,8,18.76a26.33,26.33,0,0,1-3-.37,11.79,11.79,0,0,1-2.3-1c.15-.24.63-.15,1-.22,0-.17.39,0,.44-.15.26.06.29-.11.52-.07a9.52,9.52,0,0,0,1.7-.59c.28-.14.41-.43.67-.59a.74.74,0,0,1,.22-.44c0-.28.2-.44.15-.82.11-.21.3-.34.3-.67-.07-.15-.13-.32-.3-.37s-.38-.07-.44-.22a1.37,1.37,0,0,1-.59-.08c-.15,0-.49.09-.52-.07a3.61,3.61,0,0,1-1.85-.74c.43-.26,1-.35,1.33-.74.52-.08,1.06-.13,1.11-.67,0-.72-.77-.66-1.33-.82A12.12,12.12,0,0,1,3.22,7.57c.24-.16.56-.23.74-.44.45.06.54-.25.67-.52,0-.49-.33-.61-.59-.81A3.5,3.5,0,0,1,3.37,5a18.47,18.47,0,0,1,.07-2.37c.06,0,.07,0,.07.07.23.44.56.77.82,1.19A8.87,8.87,0,0,0,5.89,5c.45.41,1.11.62,1.56,1A16.41,16.41,0,0,1,9.15,7c.67.19,1.06.67,2,.59l.59-.3c.26-.46-.06-1.08.15-1.63a4.35,4.35,0,0,1,1.26-1.48A7.81,7.81,0,0,0,14,3.64a4.82,4.82,0,0,0,1-.37,6.26,6.26,0,0,0,1-.15h1.26a7,7,0,0,0,.74.15,1.83,1.83,0,0,0,.67.37,4.47,4.47,0,0,1,1.41,3A10.23,10.23,0,0,0,20,8.16Zm.3-5.63c-.13.34-.23.71-.59.82,0-.11-.12-.12-.15-.22s.21-.19.3-.3.25-.25.44-.3C20.33,2.44,20.45,2.48,20.34,2.53Zm-5.48,3a1.36,1.36,0,0,0,.52.37.71.71,0,0,0,.59.37c0-.15.35,0,.37-.22.17,0,.17-.23.3-.3a2.36,2.36,0,0,0-.37-1.33A.93.93,0,0,0,14.86,5.57Z" transform="translate(0 0)" style="fill: #231f20"/>
  </g>
</svg>
