<svg id="Layer_1" data-name="Layer 1" xmlns="http://www.w3.org/2000/svg" viewBox="0 0 14.96 27.72">
  <title>social-facebook</title>
  <g id="facebook">
    <path d="M11.66,5.19a6.68,6.68,0,0,0,2.68-.3,8.12,8.12,0,0,0,.62-3c-.19,0-.06-.34-.21-.4s-.28-.19-.31-.4c-.28-.16-.46-.42-.72-.6L11.56,0A13.56,13.56,0,0,0,9,.11,6.62,6.62,0,0,0,3.72,2.5c0,.08,0,.2-.1.2C3,4.29,3.49,6.32,3.41,8.28c.1.44.11,1,.2,1.39a18.82,18.82,0,0,1-3.4.5C-.1,10.5,0,11.26,0,11.87a15,15,0,0,0,.41,1.59,3.53,3.53,0,0,0,.83.5c.06,0,.07.08.1.1.51.27,1.45,0,2.27.1-.14,2,.26,3.92,0,5.68,0,.33.29.38.21.8A8.25,8.25,0,0,0,4,23.33a2.63,2.63,0,0,0-.41,1.79c.12,0,.11.16.1.3-.07.47.64.17.52.7.16.46-.43.18-.41.5v.9a6,6,0,0,0,2.27.2c.91-.42,2.19-.48,2.79-1.2a1.28,1.28,0,0,0,1.24-.2c0-.32.27-.33.21-.7s-.17-.5-.1-.9V21.83c-.21-2.29,0-4.94-.31-7.18a9.1,9.1,0,0,0,2.58-.4A4.85,4.85,0,0,0,13,12.37a1.56,1.56,0,0,0,.21-1c.19-.21.07-.73.1-1.1-.14-.6-.17-1.3-.83-1.39-.88-.24-2,.6-3,.3,0-1.13-.29-2.34,0-3.39C10.24,5.61,10.94,5.39,11.66,5.19ZM7.84,10a3.76,3.76,0,0,0,.41.7c.08,0,.2,0,.21.1a10.32,10.32,0,0,0,3.1-.3A7.46,7.46,0,0,1,11,13a10,10,0,0,1-2,.2c-.28.16-.37.51-.62.7,0,.44.14.5,0,.8-.2.14-.05.61-.21.8V17c.08.28-.15.26-.1.5v3.49c-.08.28.15.26.1.5v3c.06.27-.13.79.1.9-.07.36-.41,0-.82.1a7.66,7.66,0,0,1-1.55.4,2.81,2.81,0,0,0,.31-1.1c0-.38-.37-.31-.52-.5.19-.64.56-1.12.72-1.79.2-.51.71-1.3.31-1.79-.52-.11-.52.29-.83.4,0,.08,0,.2-.1.2s0,.2-.1.2-.15.06,0,0,0-.2.1-.2,0-.2.1-.2v-.3a5.71,5.71,0,0,0,.83-2,4.81,4.81,0,0,0,.41-1,1.29,1.29,0,0,0,.1-1.2,1,1,0,0,0-.93.7c-.32-.19.16-.43.1-.7.14-.23.17-.57.31-.8.2-.41.56-1.3,0-1.6a.66.66,0,0,0-.72.5,1.45,1.45,0,0,0-.52.7c-.37-.07-.14-.73-.21-1.1s.12-.9,0-1.2c-.56-.8-2-.11-3.2-.3a2.24,2.24,0,0,1-.1-1.2c1-.09,2.48.2,3.2-.2,0-.08,0-.2.1-.2.09-.72-.27-1-.51-1.4a17.1,17.1,0,0,0,.1-3c.23-.14.33-.41.51-.6.11-1,.67-1.48.72-2.49-.27,0-.61-.05-.62.2-.3-.11-.38.48-.51.2-.11-.54.25-.63.31-1,.6-.42,1.21-.82,1.86-1.2,1.74-.24,4.65-.45,6.09.2.05.62-.29.85-.21,1.5H11.56a30.6,30.6,0,0,0-3,1c-.24.07-.28.33-.52.4a5.91,5.91,0,0,1-.31,1C7.66,7.43,7.87,8.59,7.84,10Z" transform="translate(0 0)" style="fill: #231f20"/>
  </g>
</svg>
