<svg id="Layer_1" data-name="Layer 1" xmlns="http://www.w3.org/2000/svg" viewBox="0 0 21.77 21.33">
  <title>social-instagram</title>
  <g id="instagram">
    <path d="M21.77,12.15c0-2.39-.34-4.79-.3-7.13,0-.79-.09-1.54-.15-2.28a5.29,5.29,0,0,1-.15-1.06C20.9,1.5,20.94,1,20.7.83,20.28.6,19.5.72,19,.61S17.7.49,17.06.45c-1.94-.1-4-.08-6-.08A43.25,43.25,0,0,1,5.37,0H3.17c-.1,0-.11.1-.23.08a9.25,9.25,0,0,0-1.59.3,2.81,2.81,0,0,1-.68.3C.52.88.15.83.05,1.06s.18.45,0,.61v.91c.17.13,0,.58.08.83v1c0,1.28.13,2.4.08,3.72a38.7,38.7,0,0,1,.08,9.41,14.11,14.11,0,0,1,.46,1.75,7.61,7.61,0,0,0,.68,1.52,6.73,6.73,0,0,0,1.9.23,4.34,4.34,0,0,0,1.14.3c2.84-.21,5.5-.15,8.43-.23a34.61,34.61,0,0,0,8.28-.23c.2-.13.13-.53.23-.76-.06-.38.21-.45.23-.76C21.75,17,21.78,14.57,21.77,12.15Zm-13-6.22a9.43,9.43,0,0,1,2.43-.3,10.79,10.79,0,0,1,1.9.46c.12.18-.24.55.15.68v.08c.06,0,.15,0,.15.08a1.92,1.92,0,0,1,1.06.38c.45.05.54.48,1.14.38a2.18,2.18,0,0,0-.08.83,11.88,11.88,0,0,1,.3,4.25,1.86,1.86,0,0,0-.3.68c-.31.32-.48.79-.84,1.06a1.08,1.08,0,0,1-.45.53c-.12.21-.21.45-.46.53s-.58,0-.83-.08a3.44,3.44,0,0,0-1.21.61c-.82-.1-1.65-.17-2.43-.3a1.94,1.94,0,0,0-.83-.3A2,2,0,0,0,7.64,15c-.1-.13-.34-.12-.46-.23s-.23-.23-.46-.23c-.12-.41-.44-.62-.53-1.06a5.55,5.55,0,0,1-.46-1.21,13.41,13.41,0,0,1,.38-3.8c.35-.59.78-1.09,1.14-1.67.25,0,.37-.09.38-.3.31.05.43-.07.68-.08S8.59,6.06,8.78,5.92ZM7.11,3.19A3.27,3.27,0,0,1,7,2.13c0-.28.28-.28.3-.53,0-.07-.09-.06-.15-.08.13-.15.7-.1.83,0,.13.54-.35.46-.53.68,0,.17.32,0,.46.08,0,.85-.06,1.5,0,2.2H7.49c0,.23.23.23.46.23-.06.29.09.36.08.61-.23.15-.72,0-1.06.08C6.86,4.8,7.2,4,7.11,3.19ZM6.43,1.59c.09,0,.13,0,.15.08.18.25,0,.68-.08.91C6.33,2.4,6.48,1.9,6.43,1.59Zm.15,1.82c-.13-.07-.17-.24-.15-.46C6.56,3,6.6,3.2,6.58,3.42Zm0,1.37c-.06.14-.08,0-.08-.15S6.59,4.68,6.58,4.78ZM6.43,5c.17,0,.08.22.23.23,0,.19-.28.18-.38.08S6.39,5.12,6.43,5ZM4.08,3.79c0-.11,0-.21-.08-.23-.07-.73.13-1.41,0-2,.25-.15.77,0,1.14-.08V2.66a.49.49,0,0,1-.38.08c-.05.28.32.13.38.3a9.3,9.3,0,0,0,.15,2.43c-.57-.06-.91.11-1.44.08.1-.61,0-1.43.53-1.59C4.37,3.81,4.12,3.9,4.08,3.79Zm-.53,0c-.2,0-.22-.53-.08-.61C3.8,3.19,3.72,3.69,3.55,3.79Zm-.15,1a3.67,3.67,0,0,0,.08-.68C3.7,4.11,3.73,4.87,3.39,4.78Zm.23-2c-.26.05-.27-.27-.15-.38S3.74,2.62,3.62,2.73Zm0-1.14c0,.16-.05.2-.08.3-.18,0-.08-.22-.23-.23C3.34,1.57,3.51,1.61,3.62,1.59ZM3.39,5.31c.15,0,.11.34-.08.23A.36.36,0,0,0,3.39,5.31ZM2.71,1.59c0,.26-.44.32-.38,0Zm-1,.08c0,.22-.33.18-.38.38C1.13,1.88,1.43,1.58,1.72,1.67Zm-.46.76L2,1.82c0-.12.07-.13.08-.23h.23c.1.38-.26.3-.3.53s-.07.13-.08.23a4.67,4.67,0,0,1,.08,1c-.27,0-.28.28-.61.23C1.37,3.14,1.21,2.89,1.27,2.43Zm.08,3.26V4.1c.2-.18.4-.36.61-.53.29.49.18,1.39.46,1.9C2.13,5.62,1.66,5.58,1.34,5.69ZM19.56,16.78a21.35,21.35,0,0,1-.38,2.81c-2.89.12-6,0-8.88.15-.2,0-.27,0-.23-.23-.25,0-.26.25-.53.23.2-.34.44-.9.15-1.29-.8,0-.8.82-1.14,1.29-.69-.05-1.14.13-1.82.08.18-.71.75-1,.91-1.75-.39-.55-1,.14-1.21.45-.2.48-.56.81-.76,1.29h-1c.24-.47.49-.93.76-1.37s.62-.74.68-1.37c-.16-.28-.42,0-.68,0-.12.18-.27.33-.38.53a8.63,8.63,0,0,0-.68,1.14c-.18.21-.33,0-.53.23-.39.27-.58.74-1,1-.17-.06,0-.36.15-.38,0-.18-.1-.55.08-.61a2.41,2.41,0,0,1,.38-.91c.12-.74.52-1.2.68-1.9-.56.1-.67.64-1,1a7.29,7.29,0,0,0-.68,1.29c-.17-.13,0-.58-.08-.84.12-.59.3-1.12.38-1.75A2.61,2.61,0,0,0,3,15a.71.71,0,0,0-.08-.76.54.54,0,0,0-.45.3c-.19,0-.19.51-.3.3,0-2.59-.45-4.81-.46-7.44,0-.33-.18-.42-.23-.68,1.63,0,3.12.09,4.78.23a3.45,3.45,0,0,1-.3.38,1.88,1.88,0,0,0-.38.3A12.67,12.67,0,0,0,5,13.82a4.39,4.39,0,0,0,1,1.44c.91.49,1.63,1.15,2.51,1.67a14.15,14.15,0,0,0,5.54,0,4.32,4.32,0,0,0,.68-.38c1.36-1.24,2.75-2.46,3-4.86V10.32a4.93,4.93,0,0,0-1.75-3.64c.33-.22,1.1,0,1.67.08a5.8,5.8,0,0,0,.68,0,8.77,8.77,0,0,1,1.44,0c.14.19.11.54.23.76-.06,1.68-.19,3.3-.15,5.09.1.45.13,1,.23,1.44A17,17,0,0,1,19.56,16.78Zm.38-11.16c-.64-.12-1.23-.28-1.9-.38.07-.33.8,0,1-.23.38-.22.29-.92.3-1.52a5,5,0,0,0,.08-1.06C19,1.48,17.63,2,16.53,2a6,6,0,0,0-.3,2.66c.17.49,1,.29,1.52.46-.14.33-.69.06-1,.08s-.71-.05-1-.15c-2.29.08-4.28,0-6.53.15a17.2,17.2,0,0,0-.08-3.64h3.11c-.34.36-.91.51-1.29.84a3.15,3.15,0,0,0-1.14.91c.25.13.54-.25.76-.38s.48-.38.83-.46a5.9,5.9,0,0,1,1.67-.91,3.54,3.54,0,0,1,1,.08c1.28,0,2.46.13,3.8.08a13,13,0,0,1,2,.3,7.11,7.11,0,0,1,.3.91A25.58,25.58,0,0,1,19.94,5.62ZM14.1,1.9c.11,0,0-.09,0,0Zm0,0a3.26,3.26,0,0,0-1.37.68A3.31,3.31,0,0,0,14.1,1.9Zm1.06.61c.11,0,0-.09,0,0Zm-1.75.91a6,6,0,0,0,1.75-.91c-.44,0-.59.32-1,.38C14,3.1,13.57,3.14,13.42,3.42Zm-.68-.84c-.11,0,0,.09,0,0ZM12,3.19c.11,0,0-.09,0,0ZM12,3.26c.06,0,.07,0,.08-.08S12,3.22,12,3.26Zm-.08.08c.06,0,.07,0,.08-.08S11.9,3.29,11.9,3.34Zm-.83.61a2.06,2.06,0,0,0,.83-.61A2,2,0,0,0,11.06,3.95Zm2.28,1c.53,0,.75-.42,1.21-.53.28-.3.78-.38,1-.76-.56,0-.77.4-1.22.53C14,4.47,13.57,4.59,13.34,4.93Zm-2.28-1c-.32-.07,0,.23,0,0Zm-.53.38s.12,0,.08-.08S10.49,4.29,10.53,4.33Zm2.81.61c-.11,0,0,.09,0,0ZM12.2,6.76c-.22-.23-.68-.23-1-.38a5.32,5.32,0,0,0-1.75.23l-.91.45a4.08,4.08,0,0,1-.76.53c-.21.22-.35.51-.68.61,0,.22-.17.28-.3.38s-.09.31-.23.38,0,.29-.08.3a18.36,18.36,0,0,0,.68,4.18c.29.62,1,.85,1.44,1.29a6.32,6.32,0,0,0,2.13.53,3.19,3.19,0,0,1,.91-.08,5.09,5.09,0,0,0,2.81-1.44,1.58,1.58,0,0,1,.45-.68c-.25-.67.29-1.1.46-1.6A8.52,8.52,0,0,0,14.78,8c-.26-.58-.92-.75-1.37-1.14-.06,0-.15,0-.15-.08A1.36,1.36,0,0,0,12.2,6.76ZM8.78,11.08c-.11-.06-.11-.24-.15-.38C8.89,10.63,8.75,10.94,8.78,11.08Zm.08.3c0-.12.08,0,.08.08S8.86,11.47,8.86,11.39Zm.46-2.05c0-.09.08,0,.08,0S9.32,9.38,9.32,9.34ZM11,7.21c-.2.26,0,.58.08.84C10.76,8,10.49,7.16,11,7.21Zm.38,3.95s.05-.1.08-.08S11.39,11.18,11.37,11.16ZM12.12,14c0-.11.07,0,.15,0A.08.08,0,0,1,12.12,14Zm2.2-2.58c-.23-.06-.14.21-.38.15a1.57,1.57,0,0,1,.23-.46C14.31,11.18,14.35,11.29,14.33,11.46Zm-1.14-3.8a2.75,2.75,0,0,1,.61.38,2,2,0,0,0,.38.53,20.57,20.57,0,0,1,.15,2.35c-.26.1-.44.27-.68.38a4.44,4.44,0,0,1-1.9-.46c-.17-.26-.36-.5-.53-.76V9a4.2,4.2,0,0,0,.46-.61c.23-.13.51-.2.45-.61A.38.38,0,0,1,12,7.59c.16,0,.25.16.38.23C12.75,7.84,12.84,7.62,13.19,7.67Z" transform="translate(0)" style="fill: #231f20"/>
  </g>
</svg>
