<svg id="Layer_1" data-name="Layer 1" xmlns="http://www.w3.org/2000/svg" viewBox="0 0 60 59.62">
  <title>toy</title>
  <path d="M0,43.68,27.44,59.61V36.27L0,20.33ZM51.35,12.44v2.45c0,1.82-3.46,3.29-7.73,3.29s-7.73-1.47-7.73-3.29V10.83h0c.26,1.71,3.6,3.07,7.7,3.07,4.27,0,7.73-1.47,7.73-3.28s-3.46-3.29-7.73-3.29c-.34,0-.67,0-1,0l-5-2.89V7.56c0,1.82-3.45,3.29-7.72,3.29a12.65,12.65,0,0,1-6.43-1.47,3.94,3.94,0,0,0-.73-.59,1.8,1.8,0,0,1-.57-1.24v-3L17.38,7.36c-.35,0-.7,0-1.05,0-4.27,0-7.73,1.47-7.73,3.29s3.46,3.28,7.73,3.28c4.1,0,7.45-1.36,7.7-3.07h0v4.06c0,1.82-3.45,3.29-7.73,3.29S8.6,16.71,8.6,14.89V12.47l-6,3.45,27.53,16L57.53,16ZM37.7,22.6c0,1.82-3.46,3.29-7.73,3.29s-7.73-1.47-7.73-3.29V18.54h0c.26,1.71,3.6,3.08,7.71,3.08s7.44-1.36,7.7-3.08h0V22.6ZM32.56,36.48V59.62L60,43.68V20.54ZM29.92,6.57c4.27,0,7.72-1.47,7.72-3.29S34.18,0,29.92,0s-7.73,1.47-7.73,3.29,3.46,3.29,7.73,3.29" transform="translate(0)" style="fill: #231f20"/>
</svg>
