<svg version="1.1" id="Layer_1" xmlns="http://www.w3.org/2000/svg" xmlns:xlink="http://www.w3.org/1999/xlink" x="0px" y="0px" width="21.769px" height="21.334px" viewBox="53.115 53.19 21.769 21.334" enable-background="new 53.115 53.19 21.769 21.334" xml:space="preserve">
  <g id="instagram">
    <g>
      <path fill="#231F20" d="M74.881,65.336c-0.013-2.395-0.344-4.788-0.303-7.135c-0.023-0.788-0.086-1.535-0.152-2.278 c-0.105-0.3-0.111-0.699-0.152-1.062c-0.26-0.17-0.222-0.64-0.456-0.835c-0.423-0.233-1.201-0.114-1.744-0.22 c-0.657-0.026-1.254-0.115-1.899-0.153c-1.936-0.101-3.973-0.076-5.996-0.076c-2.001,0-3.954-0.145-5.695-0.379h-2.202 c-0.097,0.004-0.105,0.098-0.227,0.076c-0.599,0.034-1.077,0.188-1.595,0.303c-0.21,0.119-0.421,0.235-0.683,0.304 c-0.136,0.192-0.513,0.145-0.607,0.379c-0.186,0.212,0.185,0.451,0,0.607v0.911c0.173,0.13,0.027,0.58,0.075,0.835v0.987 c-0.017,1.281,0.134,2.397,0.076,3.72c0.467,2.762,0.374,6.537,0.076,9.413c0.155,0.579,0.363,1.105,0.455,1.746 c0.256,0.479,0.335,1.133,0.683,1.52c0.502,0.206,1.233,0.186,1.898,0.229c0.383,0.098,0.667,0.293,1.14,0.30 c2.843-0.21,5.496-0.154,8.427-0.229c2.704,0.24,5.802,0.188,8.275-0.228c0.195-0.134,0.128-0.529,0.228-0.76 c-0.056-0.385,0.207-0.449,0.228-0.759C74.862,70.157,74.895,67.763,74.881,65.336z M61.899,59.111 c0.757-0.153,1.48-0.341,2.429-0.304c0.71,0.076,1.287,0.283,1.897,0.456c0.116,0.184-0.243,0.547,0.153,0.684v0.076 c0.059,0.017,0.149,0.002,0.151,0.076c0.445,0.035,0.794,0.167,1.063,0.379c0.45,0.055,0.536,0.476,1.138,0.3 c-0.091,0.213-0.084,0.524-0.075,0.835c0.324,1.183,0.475,2.81,0.303,4.252c-0.164,0.163-0.215,0.442-0.303,0.683 c-0.311,0.322-0.481,0.785-0.836,1.062c-0.095,0.236-0.25,0.408-0.454,0.533c-0.116,0.213-0.206,0.452-0.457,0.53 c-0.298,0.163-0.577,0.011-0.834-0.076c-0.446,0.162-0.904,0.312-1.215,0.607c-0.816-0.096-1.648-0.175-2.43-0.304 c-0.242-0.139-0.487-0.273-0.835-0.305c-0.227-0.204-0.496-0.364-0.836-0.455c-0.101-0.127-0.337-0.118-0.455-0.229 c-0.198-0.029-0.229-0.227-0.456-0.229c-0.118-0.412-0.443-0.618-0.532-1.062c-0.226-0.331-0.308-0.805-0.455-1.215 c-0.043-1.434,0.091-2.692,0.379-3.796c0.346-0.591,0.779-1.094,1.138-1.67c0.249,0.021,0.365-0.09,0.38-0.304 c0.306,0.053,0.434-0.072,0.684-0.075C61.698,59.568,61.71,59.251,61.899,59.111z M60.229,56.378 c-0.117-0.263-0.066-0.691-0.075-1.062c-0.007-0.285,0.278-0.279,0.304-0.532c-0.003-0.074-0.093-0.059-0.152-0.076 c0.126-0.146,0.701-0.097,0.834,0c0.132,0.537-0.354,0.455-0.531,0.684c0.011,0.167,0.322,0.032,0.456,0.076 c0.029,0.854-0.059,1.496,0,2.202h-0.456c-0.007,0.234,0.229,0.226,0.456,0.228c-0.059,0.286,0.092,0.363,0.075,0.607 c-0.226,0.153-0.716,0.042-1.062,0.075C59.975,57.986,60.313,57.205,60.229,56.378z M59.546,54.784 c0.088-0.013,0.134,0.016,0.151,0.076c0.179,0.253,0.01,0.683-0.076,0.911C59.448,55.592,59.595,55.089,59.546,54.784z M59.698,56.606c-0.132-0.069-0.168-0.237-0.152-0.456C59.678,56.221,59.713,56.388,59.698,56.606z M59.698,57.973 c-0.058,0.139-0.082-0.045-0.076-0.152C59.68,57.682,59.703,57.866,59.698,57.973z M59.546,58.201 c0.175-0.024,0.084,0.219,0.228,0.227c-0.009,0.193-0.283,0.179-0.38,0.077C59.433,58.393,59.507,58.312,59.546,58.201z M57.192,56.985c0.006-0.108,0.013-0.214-0.076-0.228c-0.073-0.733,0.13-1.415,0-1.973c0.25-0.155,0.769-0.042,1.139-0.077v1.139 c-0.088,0.064-0.203,0.101-0.379,0.077c-0.054,0.28,0.324,0.131,0.379,0.304c0.008,0.853-0.056,1.777,0.152,2.429 c-0.565-0.059-0.906,0.107-1.442,0.076c0.097-0.612-0.019-1.435,0.531-1.594C57.484,56.997,57.239,57.091,57.192,56.985z M56.661,56.985c-0.204,0.021-0.217-0.534-0.077-0.607C56.912,56.384,56.833,56.879,56.661,56.985z M56.509,57.973 c0.077-0.312,0.034-0.304,0.075-0.683C56.812,57.303,56.844,58.06,56.509,57.973z M56.737,55.923 c-0.263,0.054-0.273-0.266-0.153-0.38C56.847,55.49,56.856,55.81,56.737,55.923z M56.737,54.784 c0.033,0.159-0.052,0.201-0.076,0.304c-0.176,0.023-0.084-0.219-0.229-0.229C56.457,54.757,56.623,54.797,56.737,54.784z M56.509,58.505c0.148-0.031,0.11,0.345-0.076,0.227C56.473,58.67,56.512,58.608,56.509,58.505z M55.825,54.784 c0.029,0.259-0.438,0.32-0.379,0H55.825z M54.838,54.86c-0.034,0.219-0.326,0.179-0.379,0.379 C54.245,55.069,54.543,54.771,54.838,54.86z M54.383,55.619c0.226-0.205,0.451-0.41,0.684-0.607 c-0.021-0.123,0.071-0.131,0.076-0.228h0.229c0.102,0.381-0.261,0.296-0.305,0.531c0.021,0.122-0.072,0.131-0.075,0.227 c0.02,0.335,0.121,0.588,0.075,0.988c-0.27,0.008-0.276,0.28-0.607,0.227C54.482,56.329,54.325,56.083,54.383,55.619z M54.459,58.884V57.29c0.195-0.185,0.396-0.364,0.607-0.532c0.295,0.489,0.179,1.392,0.455,1.897 C55.246,58.812,54.771,58.766,54.459,58.884z M72.68,69.968c-0.109,0.954-0.158,1.968-0.379,2.809 c-2.89,0.123-6.02,0.005-8.883,0.153c-0.199,0.045-0.273-0.031-0.229-0.229c-0.253,0-0.258,0.247-0.531,0.229 c0.201-0.336,0.438-0.898,0.151-1.291c-0.797,0.013-0.797,0.821-1.138,1.291c-0.686-0.053-1.137,0.127-1.823,0.075 c0.18-0.705,0.75-1.021,0.911-1.745c-0.395-0.55-0.989,0.138-1.214,0.455c-0.204,0.48-0.557,0.81-0.76,1.29H57.8 c0.238-0.469,0.489-0.926,0.759-1.366c0.171-0.512,0.625-0.741,0.683-1.367c-0.157-0.28-0.42-0.029-0.683,0 c-0.123,0.182-0.272,0.335-0.38,0.531c-0.232,0.376-0.501,0.714-0.684,1.14c-0.181,0.208-0.335,0.003-0.53,0.227 c-0.389,0.271-0.581,0.736-0.988,0.987c-0.174-0.06,0.039-0.356,0.153-0.38c0.045-0.181-0.096-0.55,0.075-0.607 c0.063-0.366,0.212-0.647,0.379-0.91c0.119-0.742,0.521-1.199,0.684-1.898c-0.559,0.099-0.674,0.643-0.988,0.987 c-0.212,0.445-0.542,0.772-0.683,1.291c-0.174-0.131-0.028-0.58-0.076-0.836c0.122-0.586,0.298-1.119,0.38-1.746 c0.133-0.22,0.173-0.535,0.228-0.834c0.168-0.209,0.046-0.61-0.077-0.761c-0.226,0.027-0.374,0.133-0.455,0.304 c-0.192-0.032-0.193,0.506-0.304,0.304c-0.045-2.587-0.451-4.812-0.456-7.438c0.026-0.331-0.183-0.424-0.228-0.685 c1.629,0.028,3.121,0.091,4.783,0.229c-0.089,0.139-0.199,0.257-0.304,0.379c-0.144,0.07-0.226,0.173-0.378,0.304 c-0.604,1.653-0.975,3.984-0.607,6.15c0.229,0.58,0.589,1.029,0.986,1.441c0.907,0.485,1.635,1.149,2.506,1.671 c1.701,0.361,3.84,0.369,5.541,0c0.236-0.12,0.484-0.226,0.685-0.38c1.364-1.242,2.753-2.459,2.961-4.859v-1.367 c-0.197-1.598-0.688-2.905-1.747-3.644c0.331-0.22,1.099,0.043,1.67,0.076c0.223,0.013,0.447,0.014,0.684,0 c0.408-0.024,0.928-0.055,1.443,0c0.144,0.187,0.113,0.544,0.228,0.76c-0.062,1.684-0.192,3.3-0.152,5.087 c0.103,0.454,0.127,0.986,0.229,1.441C73.046,68.209,72.9,69.126,72.68,69.968z M73.059,58.808 c-0.639-0.12-1.232-0.284-1.897-0.379c0.072-0.333,0.799-0.01,0.987-0.228c0.385-0.223,0.295-0.92,0.304-1.51 c0.032-0.348,0.114-0.644,0.076-1.063c-0.401-0.951-1.783-0.421-2.886-0.455c-0.225,0.718-0.47,1.8-0.304,2.657 c0.169,0.49,1.024,0.292,1.519,0.456c-0.14,0.332-0.688,0.057-0.987,0.076c-0.296-0.083-0.707-0.052-0.986-0.151 c-2.285,0.078-4.284,0.004-6.529,0.151c0.117-1.248,0.063-2.465-0.076-3.645h3.112c-0.344,0.364-0.912,0.507-1.29,0.835 c-0.44,0.244-0.861,0.505-1.139,0.911c0.249,0.134,0.535-0.245,0.759-0.379c0.355-0.074,0.479-0.381,0.835-0.455 c0.423-0.438,1.096-0.625,1.67-0.912c0.378-0.022,0.697,0.013,0.987,0.077c1.283,0.007,2.456,0.126,3.796,0.076 c0.614,0.145,1.45,0.069,1.974,0.304c0.107,0.298,0.231,0.579,0.305,0.911C73.297,57.071,73.14,57.901,73.059,58.808z M67.214,55.088C67.324,55.041,67.205,54.996,67.214,55.088L67.214,55.088z M67.214,55.088c-0.529,0.154-1.019,0.348-1.367,0.682 C66.331,55.572,66.906,55.464,67.214,55.088z M68.276,55.695C68.387,55.648,68.269,55.604,68.276,55.695L68.276,55.695z M66.53,56.606c0.727-0.158,1.181-0.591,1.746-0.911c-0.437,0.019-0.592,0.32-0.987,0.379 C67.074,56.291,66.689,56.334,66.53,56.606z M65.847,55.771C65.736,55.818,65.854,55.863,65.847,55.771L65.847,55.771z M65.164,56.378C65.274,56.332,65.156,56.286,65.164,56.378L65.164,56.378z M65.089,56.454c0.063,0.014,0.07-0.03,0.075-0.076 C65.1,56.364,65.092,56.408,65.089,56.454z M65.012,56.53c0.064,0.014,0.072-0.03,0.077-0.076 C65.022,56.441,65.017,56.483,65.012,56.53z M64.178,57.138c0.346-0.134,0.613-0.348,0.834-0.607 C64.664,56.664,64.397,56.878,64.178,57.138z M66.454,58.125c0.533-0.049,0.749-0.416,1.215-0.531 c0.284-0.298,0.784-0.381,0.987-0.76c-0.56,0.023-0.766,0.399-1.216,0.531C67.156,57.662,66.689,57.778,66.454,58.125z M64.178,57.138C63.861,57.064,64.162,57.365,64.178,57.138L64.178,57.138z M63.645,57.517c0.021,0.021,0.115-0.037,0.076-0.077 C63.7,57.42,63.605,57.478,63.645,57.517z M66.454,58.125C66.344,58.172,66.461,58.216,66.454,58.125L66.454,58.125z M65.314,59.946c-0.223-0.231-0.676-0.233-0.986-0.379c-0.697-0.038-1.223,0.093-1.746,0.229c-0.304,0.151-0.607,0.304-0.91,0.454 c-0.266,0.166-0.444,0.417-0.76,0.532c-0.205,0.225-0.352,0.51-0.684,0.607c-0.004,0.223-0.173,0.281-0.304,0.379 c-0.089,0.115-0.094,0.312-0.227,0.381c-0.007,0.12,0.036,0.29-0.076,0.303c0.108,1.512,0.291,2.948,0.683,4.177 c0.287,0.623,0.975,0.846,1.442,1.29c0.589,0.297,1.328,0.444,2.126,0.531c0.277-0.052,0.553-0.105,0.911-0.076 c1.209-0.209,2.098-0.736,2.81-1.441c0.1-0.281,0.252-0.508,0.455-0.684c-0.254-0.671,0.293-1.098,0.455-1.59 c0.002-1.344-0.201-2.48-0.607-3.415c-0.256-0.579-0.92-0.751-1.366-1.139c-0.059-0.018-0.15-0.003-0.151-0.077 C66.11,59.892,65.646,59.789,65.314,59.946z M61.899,64.273c-0.113-0.063-0.109-0.244-0.152-0.379 C62.003,63.816,61.865,64.131,61.899,64.273z M61.975,64.578c0.041-0.117,0.079-0.006,0.076,0.075 C62.011,64.771,61.972,64.658,61.975,64.578z M62.431,62.527c0.015-0.086,0.075-0.042,0.075,0 C62.492,62.614,62.431,62.57,62.431,62.527z M64.101,60.402c-0.203,0.258,0.041,0.576,0.077,0.836 C63.873,61.199,63.604,60.351,64.101,60.402z M64.48,64.35c-0.04-0.038,0.055-0.097,0.076-0.076 C64.596,64.312,64.502,64.371,64.48,64.35z M65.239,67.234c0.034-0.109,0.066,0.008,0.152,0 C65.373,67.331,65.241,67.311,65.239,67.234z M67.44,64.653c-0.233-0.057-0.145,0.208-0.379,0.152 c0.069-0.159,0.118-0.338,0.229-0.455C67.424,64.369,67.462,64.48,67.44,64.653z M66.303,60.857 c0.211,0.119,0.441,0.217,0.606,0.381c0.085,0.219,0.243,0.363,0.38,0.529c0.058,0.778,0.179,1.492,0.151,2.354 c-0.257,0.099-0.438,0.271-0.683,0.381c-0.78-0.006-1.358-0.212-1.897-0.456c-0.171-0.259-0.355-0.505-0.532-0.759v-1.062 c0.17-0.185,0.319-0.391,0.456-0.607c0.228-0.127,0.508-0.201,0.454-0.607c-0.038-0.062-0.078-0.124-0.075-0.229 c0.158,0.045,0.245,0.159,0.379,0.229C65.865,61.028,65.952,60.811,66.303,60.857z"/>
      </g>
    </g>
  </svg>
