<svg version="1.1" id="Layer_1" xmlns="http://www.w3.org/2000/svg" xmlns:xlink="http://www.w3.org/1999/xlink" x="0px" y="0px" width="31.972px" height="37.301px" viewBox="8.014 4.35 31.972 37.301" enable-background="new 8.014 4.35 31.972 37.301" xml:space="preserve">
  <path fill="#231F20" d="M24,41.65c8.827,0,15.986-7.159,15.986-15.986C31.158,25.664,24,32.822,24,41.65z M12.641,20.78 c0,2.451,1.989,4.441,4.44,4.441c0.932,0,1.803-0.294,2.513-0.782l-0.036,0.337c0,2.451,1.99,4.441,4.441,4.441 s4.44-1.99,4.44-4.441l-0.036-0.337c0.719,0.497,1.582,0.782,2.514,0.782c2.451,0,4.44-1.99,4.44-4.441 c0-1.768-1.038-3.286-2.54-3.997c1.492-0.71,2.54-2.229,2.54-3.997c0-2.451-1.989-4.44-4.44-4.44c-0.932,0-1.803,0.293-2.514,0.781 L28.44,8.79c0-2.451-1.989-4.44-4.44-4.44s-4.441,1.99-4.441,4.44l0.036,0.337c-0.719-0.497-1.581-0.781-2.513-0.781 c-2.451,0-4.44,1.99-4.44,4.44c0,1.768,1.039,3.286,2.54,3.997C13.68,17.494,12.641,19.012,12.641,20.78z M24,12.343 c2.451,0,4.44,1.989,4.44,4.44c0,2.451-1.989,4.44-4.44,4.44s-4.441-1.99-4.441-4.44C19.559,14.332,21.549,12.343,24,12.343z  M8.014,25.664c0,8.827,7.158,15.986,15.986,15.986C24,32.822,16.842,25.664,8.014,25.664z"/>
</svg>
