<svg version="1.1" id="Layer_1" xmlns="http://www.w3.org/2000/svg" xmlns:xlink="http://www.w3.org/1999/xlink" x="0px" y="0px" width="14.962px" height="27.718px" viewBox="56.519 49.996 14.962 27.718" enable-background="new 56.519 49.996 14.962 27.718" xml:space="preserve">
  <g id="facebook">
    <g>
      <path fill="#231F20" d="M68.181,55.188c1.026,0.029,1.993,0,2.681-0.3c0.391-0.818,0.556-1.854,0.619-2.989 c-0.19-0.015-0.062-0.337-0.207-0.399c-0.029-0.202-0.278-0.195-0.309-0.398c-0.277-0.165-0.457-0.422-0.723-0.598 c-0.727-0.162-1.44-0.335-2.164-0.499c-0.849,0.044-1.895-0.103-2.58,0.1c-2.619-0.04-3.997,1.12-5.259,2.392 c-0.023,0.078-0.003,0.197-0.105,0.199c-0.574,1.587-0.125,3.621-0.204,5.581c0.099,0.436,0.107,0.958,0.204,1.395 c-0.998,0.296-2.212,0.387-3.402,0.499c-0.317,0.324-0.178,1.089-0.206,1.693c0.085,0.583,0.278,1.06,0.413,1.595 c0.211,0.193,0.596,0.396,0.825,0.498c0.065,0.029,0.071,0.082,0.103,0.1c0.506,0.268,1.451,0.008,2.268,0.1 c-0.136,1.978,0.256,3.915,0,5.68c0.007,0.327,0.295,0.382,0.208,0.798c-0.001,0.963-0.067,1.99,0.208,2.69 c-0.287,0.455-0.497,0.982-0.415,1.794c0.122,0.016,0.114,0.157,0.105,0.299c-0.075,0.47,0.643,0.175,0.515,0.698 c0.162,0.456-0.428,0.184-0.413,0.498v0.896c0.53,0.285,1.462,0.182,2.268,0.199c0.908-0.419,2.188-0.479,2.785-1.196 c0.459,0.235,0.916-0.014,1.238-0.199c-0.018-0.315,0.273-0.333,0.205-0.698c-0.004-0.328-0.173-0.496-0.103-0.896V71.83 c-0.206-2.293-0.048-4.938-0.309-7.176c0.888-0.105,1.917-0.075,2.578-0.398c0.357-0.451,0.377-1.23,0.516-1.895 c0.177-0.226,0.221-0.583,0.206-0.996c0.19-0.213,0.068-0.729,0.104-1.096c-0.141-0.595-0.168-1.3-0.825-1.39 c-0.884-0.235-2.043,0.595-2.991,0.299c0.049-1.134-0.293-2.342,0-3.388C66.761,55.609,67.461,55.39,68.181,55.188z M64.363,59.971c0.117,0.254,0.254,0.486,0.414,0.698c0.079,0.022,0.203,0.003,0.205,0.101c1.192,0.056,2.199-0.069,3.096-0.299 c0,0.998-0.271,1.733-0.518,2.492c-0.662,0.045-1.467,0.3-1.958,0.198c-0.276,0.165-0.372,0.506-0.62,0.698 c-0.049,0.441,0.142,0.495,0,0.797c-0.201,0.137-0.055,0.611-0.205,0.796v1.496c0.085,0.281-0.146,0.258-0.104,0.497v3.488 c-0.085,0.281,0.146,0.258,0.104,0.498v2.989c0.063,0.271-0.132,0.791,0.103,0.896c-0.07,0.364-0.412-0.021-0.824,0.1 c-0.528,0.122-0.926,0.369-1.548,0.4c0.117-0.353,0.32-0.622,0.311-1.097c0.049-0.381-0.365-0.312-0.516-0.49 c0.193-0.644,0.562-1.117,0.722-1.793c0.197-0.515,0.714-1.298,0.31-1.794c-0.522-0.105-0.521,0.293-0.826,0.398 c-0.022,0.077-0.002,0.196-0.103,0.199c-0.023,0.077-0.003,0.196-0.103,0.199c0.01,0.12-0.151,0.062,0,0 c0.022-0.078,0.002-0.197,0.103-0.199c0.023-0.077,0.002-0.197,0.103-0.199v-0.299c0.368-0.575,0.67-1.214,0.826-1.993 c0.191-0.28,0.283-0.656,0.412-0.997c0.156-0.262,0.34-0.869,0.104-1.195c-0.517,0.033-0.796,0.295-0.93,0.697 c-0.32-0.189,0.161-0.434,0.104-0.697c0.138-0.231,0.169-0.566,0.309-0.797c0.202-0.413,0.564-1.304,0-1.596 c-0.438-0.023-0.612,0.207-0.723,0.498c-0.214,0.191-0.43,0.383-0.516,0.698c-0.373-0.07-0.143-0.727-0.206-1.097 c-0.067-0.52,0.122-0.899,0-1.195c-0.56-0.799-2.026-0.105-3.197-0.299c-0.108-0.307-0.222-0.984-0.104-1.195 c1.045-0.088,2.479,0.201,3.197-0.199c0.024-0.078,0.003-0.197,0.104-0.199c0.094-0.723-0.271-1-0.515-1.396 c0.232-0.806,0.04-2.02,0.104-2.989c0.233-0.141,0.328-0.414,0.515-0.598c0.112-0.955,0.673-1.476,0.722-2.49 c-0.273,0.001-0.607-0.055-0.619,0.199c-0.302-0.114-0.382,0.479-0.515,0.199c-0.112-0.541,0.246-0.626,0.309-0.997 c0.599-0.418,1.212-0.82,1.856-1.195c1.741-0.244,4.648-0.449,6.086,0.198c0.051,0.616-0.287,0.854-0.207,1.496h-1.546 c-1.092,0.24-1.987,0.672-2.991,0.997c-0.24,0.066-0.276,0.331-0.516,0.398c-0.036,0.396-0.225,0.646-0.311,0.996 C64.182,57.424,64.394,58.582,64.363,59.971z"/>
    </g>
  </g>
</svg>
