<svg version="1.1" id="Layer_2" xmlns="http://www.w3.org/2000/svg" xmlns:xlink="http://www.w3.org/1999/xlink" x="0px" y="0px" width="24.829px" height="24.333px" viewBox="0 0 24.829 24.333" enable-background="new 0 0 24.829 24.333" xml:space="preserve">
  <g>
    <g id="UrwUhy_2_">
      <g>
        <path d="M17.321,24.333c-0.371,0-0.744,0-1.115,0c-4.904-0.58-8.497-2.857-11.11-5.772C2.473,15.637,0.402,11.875,0,6.817 c0-0.453,0-0.906,0-1.358c0.091-0.921,0.544-1.55,1.067-2.086c0.65-0.666,1.63-1.522,2.522-1.553 c0.659-0.022,1.78,0.451,2.232,1.066c0.388,0.53,0.595,1.59,0.775,2.378c0.185,0.797,0.6,1.95,0.485,2.717 C6.905,9.177,5.317,9.684,4.85,10.553c1.551,3.721,4.089,6.456,7.472,8.345c0.847-0.465,1.595-1.864,2.767-1.892 c0.428-0.012,0.972,0.209,1.406,0.34c0.477,0.143,0.891,0.326,1.311,0.484c0.705,0.266,1.957,0.621,2.378,1.213 c0.433,0.61,0.681,1.608,0.581,2.231C20.571,22.508,18.538,23.877,17.321,24.333z"/>
      </g>
    </g>
    <path d="M12.529,1.528c5.949,0,10.771,4.822,10.771,10.771h1.529C24.829,5.507,19.323,0,12.529,0V1.528z"/>
    <path d="M12.529,9.327v1.552c0.785,0,1.421,0.636,1.421,1.42h1.553C15.502,10.657,14.172,9.327,12.529,9.327z"/>
    <path d="M12.529,6.246c3.345,0,6.056,2.71,6.056,6.054h1.588c0-4.22-3.422-7.641-7.644-7.641V6.246z"/>
  </g>
</svg>
