<svg version="1.1" id="Layer_1" xmlns="http://www.w3.org/2000/svg" xmlns:xlink="http://www.w3.org/1999/xlink" x="0px" y="0px" width="23.494px" height="20.168px" viewBox="52.253 53.771 23.494 20.168" enable-background="new 52.253 53.771 23.494 20.168" xml:space="preserve">
  <g id="twitter">
    <g>
      <path fill="#231F20" d="M75.706,57.855c-0.227-0.366-0.909-0.277-1.407-0.371h-1.112c0.142-0.353,0.343-0.646,0.52-0.963 c0.056-0.438,0.254-0.734,0.223-1.26c0.129-0.167,0.176-0.417,0.296-0.593c0.104-0.144,0.242-0.477,0.074-0.667 c-0.051-0.221-0.295-0.249-0.593-0.222c-0.088,0.036-0.169,0.079-0.222,0.148c-0.448,0.433-0.778,1.014-1.261,1.408 c-0.009,0.008-0.062,0-0.074,0c-0.087,0.005-0.033,0.046-0.075,0.074c-0.146,0.098-0.257,0.152-0.369,0.223 c-0.284,0.176-0.547,0.445-0.891,0.519c-0.529-0.211-1.156-0.326-1.852-0.37c-1.157,0.102-2.303,0.215-3.038,0.741 c-0.911,0.35-1.477,1.042-2.149,1.63c-0.049,0.32-0.342,0.398-0.37,0.741c-0.005,0.045-0.012,0.088-0.073,0.074 c0.043,0.241-0.051,0.345-0.074,0.519c-0.001,0.133,0.199,0.431,0,0.52c-0.822-0.12-1.485-0.63-2.149-0.964 c-0.718-0.36-1.468-0.604-2.074-1.111c-0.716-0.322-1.26-0.816-1.778-1.334c-0.208-0.312-0.542-0.496-0.667-0.89 c-0.379-0.164-0.175-0.912-0.741-0.889c-0.315-0.043-0.345,0.199-0.444,0.37c-0.07,0.227-0.361,0.232-0.371,0.519 c-0.004,0.046-0.011,0.088-0.074,0.075c-0.17,1.089-0.527,1.992-0.519,3.26c0.129,0.415,0.35,0.738,0.593,1.038 c-0.418,0.051-0.716,0.222-0.89,0.519c-0.06,1.073,0.378,1.647,0.742,2.297c0.134,0.384,0.352,0.685,0.593,0.963 c0.017,0.229,0.206,0.288,0.296,0.445c0.019,0.105,0.123,0.125,0.149,0.223c-0.04,0.105,0.289,0.18,0.073,0.221 c-0.413,0.131-1.016,0.07-1.259,0.371c-0.109,0.279-0.109,0.833,0,1.111c0.034,0.237,0.282,0.262,0.296,0.519 c0.499,0.417,1.082,0.747,1.631,1.112c0.574,0.166,1.211,0.271,1.852,0.37c-0.102,0.343-0.338,0.551-0.593,0.741 c-0.78,0.381-1.849,0.474-2.742,0.74c-0.555,0.038-0.956,0.23-1.556,0.223c-0.333,0.127-0.854,0.075-1.112,0.223 c-0.122,0.068-0.102,0.096-0.222,0.221c-0.134,0.412,0.111,0.74,0.444,0.89c-0.005,0.253,0.219,0.276,0.371,0.371 c0.089,0.183,0.254,0.29,0.445,0.37c0.544,0.468,1.268,0.759,1.927,1.112c0.83,0.183,1.648,0.376,2.52,0.519 c0.896,0.116,1.901,0.124,2.816,0.222h0.963c0.511,0.132,1.23,0.054,1.853,0.074c0.095-0.102,0.322-0.073,0.519-0.074 c0.522-0.269,1.196-0.385,1.631-0.74c0.574-0.241,0.989-0.642,1.557-0.89c0.866-0.765,1.937-1.324,2.519-2.37 c0.205-0.189,0.351-0.438,0.445-0.74c0.265-0.156,0.385-0.454,0.593-0.667c0.404-0.41,0.706-0.924,1.037-1.40 c0.319-0.496,0.576-1.054,0.89-1.556c-0.01-0.405,0.306-0.484,0.296-0.89c0.193-0.226,0.177-0.662,0.371-0.88 c-0.033-0.255,0.029-0.415,0.074-0.594c0.047-1.281-0.047-2.422-0.297-3.407c0.588-0.155,1.181-0.302,1.631-0.593 C75.418,58.93,75.891,58.533,75.706,57.855z M72.298,61.931c-0.153,0.859-0.615,1.41-1.038,2.001 c0.059,0.379-0.104,0.538-0.073,0.889c-0.158,0.312-0.287,0.652-0.371,1.037c-0.203,0.267-0.332,0.606-0.519,0.89 c-0.366,0.548-0.777,1.051-1.186,1.557c-0.378,0.56-0.912,0.965-1.334,1.481c-0.42,0.493-0.942,0.885-1.407,1.334 c-0.474,0.17-0.89,0.396-1.26,0.667c-0.232,0.09-0.463,0.18-0.667,0.296c-0.177,0.146-0.499,0.145-0.668,0.29 c-1.086,0.147-2.3,0.17-3.555,0.148c-1.031-0.105-2.115-0.159-3.039-0.371c-0.922-0.189-1.511-0.712-2.297-1.037 c0.153-0.242,0.634-0.154,0.963-0.222c0.031-0.166,0.394-0.003,0.444-0.149c0.257,0.06,0.285-0.109,0.52-0.07 c0.563-0.201,1.23-0.302,1.705-0.593c0.282-0.138,0.406-0.434,0.667-0.593c0.033-0.189,0.104-0.341,0.222-0.444 c0.047-0.275,0.201-0.441,0.148-0.815c0.111-0.21,0.299-0.343,0.296-0.667c-0.074-0.147-0.128-0.316-0.296-0.371 c-0.026-0.196-0.377-0.067-0.444-0.222c-0.255,0.032-0.416-0.029-0.593-0.075c-0.154-0.043-0.487,0.092-0.519-0.073 c-0.842-0.023-1.3-0.43-1.853-0.74c0.431-0.262,1.032-0.353,1.333-0.742c0.516-0.076,1.058-0.129,1.112-0.666 c0-0.717-0.771-0.661-1.333-0.815c-0.773-0.66-1.194-1.672-1.779-2.52c0.238-0.157,0.564-0.226,0.741-0.444 c0.454,0.058,0.54-0.251,0.667-0.52c0.019-0.488-0.333-0.605-0.593-0.815c-0.259-0.21-0.475-0.462-0.667-0.74 c-0.003-0.818-0.021-1.652,0.074-2.372c0.063-0.014,0.07,0.029,0.074,0.074c0.227,0.441,0.559,0.775,0.815,1.186 c0.532,0.357,0.925,0.853,1.556,1.112c0.452,0.413,1.108,0.621,1.557,1.038c0.601,0.263,1.158,0.57,1.704,0.889 c0.669,0.194,1.056,0.673,2.001,0.593c0.198-0.098,0.394-0.199,0.593-0.297c0.258-0.456-0.059-1.079,0.147-1.63 c0.255-0.659,0.797-1.031,1.26-1.481c0.29-0.155,0.555-0.335,0.815-0.519c0.347-0.098,0.675-0.216,0.964-0.37 c0.376-0.019,0.713-0.077,1.037-0.148h1.26c0.244,0.052,0.475,0.119,0.74,0.148c0.209,0.137,0.38,0.313,0.666,0.371 c0.789,0.693,1.271,1.696,1.409,3.039C72.175,60.934,72.35,61.323,72.298,61.931z M72.594,56.299 c-0.129,0.34-0.23,0.707-0.593,0.815c-0.017-0.105-0.122-0.125-0.147-0.222c-0.012-0.209,0.209-0.186,0.296-0.296 C72.312,56.511,72.395,56.348,72.594,56.299C72.587,56.209,72.702,56.253,72.594,56.299z M67.11,59.337 c0.163,0.135,0.284,0.31,0.519,0.371c0.101,0.221,0.314,0.327,0.594,0.37c0.047-0.15,0.346-0.049,0.37-0.222 c0.174-0.023,0.166-0.229,0.296-0.297c-0.018-0.55-0.129-1.006-0.37-1.333C67.761,57.803,66.843,58.265,67.11,59.337z"/>
    </g>
  </g>
</svg>
