<svg version="1.1" id="svg4488" xmlns="http://www.w3.org/2000/svg" xmlns:xlink="http://www.w3.org/1999/xlink" x="0px" y="0px" width="40.219px" height="62.411px" viewBox="-259.404 -19.675 40.219 62.411" enable-background="new -259.404 -19.675 40.219 62.411" xml:space="preserve">
  <g>
    <path d="M-244.227,18.283c-0.286,0.966-0.245,2.191,0.027,3.639c0.494,2.635,1.687,6.041,2.358,9.67h5.062 c0.696-3.641,1.949-7.05,2.471-9.683c0.287-1.445,0.33-2.66,0.041-3.617c-0.275-0.899-0.89-1.618-2.021-2.303h-5.997 C-243.361,16.668-243.96,17.38-244.227,18.283z"/>
    <path d="M-232.395,38.278h-13.799c-1.293,0-2.299,0.976-2.299,2.229v2.229h2.299h13.799h2.299v-2.229 C-230.096,39.254-231.102,38.278-232.395,38.278z"/>
    <path d="M-225.262-17.446h-11.732c0-1.244-1.015-2.229-2.3-2.229c-1.283,0-2.3,0.985-2.3,2.229h-11.737l-6.073,25.517 c0.794-0.461,1.589-0.992,2.632-0.992c1.359,0,2.243,0.818,2.924,1.375c0.682,0.557,1.162,0.849,1.447,0.849 c0.292,0.001,0.769-0.287,1.451-0.836c0.681-0.548,1.564-1.358,2.915-1.358c1.349,0,2.237,0.806,2.919,1.354 c0.684,0.549,1.161,0.84,1.451,0.84c0.146,0,0.338-0.073,0.58-0.214c0.242-0.141,0.53-0.353,0.872-0.626 c0.512-0.411,1.139-0.967,1.99-1.218c0.284-0.085,0.593-0.136,0.93-0.136c1.347,0,2.238,0.805,2.92,1.354 c0.683,0.548,1.159,0.84,1.451,0.84c0.287-0.002,0.766-0.296,1.445-0.85c0.684-0.554,1.571-1.367,2.925-1.367 c1.356,0,2.239,0.817,2.919,1.371c0.342,0.276,0.631,0.489,0.872,0.631c0.24,0.143,0.431,0.214,0.575,0.214 c0.288,0,0.762-0.293,1.442-0.854c0.68-0.559,1.567-1.384,2.929-1.384c1.044,0,1.839,0.533,2.632,0.997L-225.262-17.446z"/>
    <path d="M-235.881,33.82h-6.864c-0.657,0-1.15,0.479-1.15,1.115c0,0.635,0.493,1.113,1.15,1.113h6.9c0.655,0,1.15-0.479,1.15-1.113 c0-0.636-0.495-1.115-1.15-1.115H-235.881z"/>
    <path d="M-239.295,9.336c-0.146,0-0.338,0.074-0.58,0.213c-0.157,0.094-0.37,0.261-0.57,0.41v3.731h2.299V9.959 C-238.651,9.581-239.054,9.336-239.295,9.336z"/>
  </g>
</svg>
