<svg version="1.1" id="Layer_1" xmlns="http://www.w3.org/2000/svg" xmlns:xlink="http://www.w3.org/1999/xlink" x="0px" y="0px" width="32.666px" height="32.486px" viewBox="239.665 239.757 32.666 32.486" enable-background="new 239.665 239.757 32.666 32.486" xml:space="preserve">
  <path fill="#231F20" d="M242.56,272.243h12.504v-13.91H242.56V272.243z M270.742,248.623h-7.335 c0.521-0.267,0.984-0.549,1.396-0.845c1.588-1.133,2.424-2.57,2.42-3.999c0.002-1.169-0.556-2.202-1.359-2.901 c-0.805-0.704-1.869-1.119-3.016-1.121c-1.22-0.001-2.352,0.421-3.32,1.069c-1.459,0.979-2.606,2.451-3.424,4.067 c-0.039,0.079-0.078,0.157-0.115,0.236c-0.299-0.623-0.647-1.226-1.041-1.792c-0.691-0.985-1.523-1.86-2.497-2.511 c-0.97-0.646-2.103-1.069-3.322-1.069c-1.213,0.004-2.323,0.514-3.155,1.295c-0.828,0.783-1.41,1.885-1.412,3.135 c-0.002,0.73,0.211,1.494,0.649,2.188c0.552,0.872,1.424,1.628,2.633,2.248h-6.588c-0.878,0-1.591,0.712-1.591,1.59v5.897h15.396 v-7.488h1.873v7.488h15.396v-5.897C272.333,249.334,271.621,248.623,270.742,248.623 M248.38,246.284 c-0.622-0.391-1-0.785-1.22-1.135c-0.22-0.354-0.294-0.662-0.296-0.963c-0.004-0.504,0.248-1.042,0.691-1.461 c0.437-0.415,1.028-0.667,1.562-0.667h0.013c0.685,0,1.366,0.231,2.046,0.683c1.018,0.671,1.975,1.85,2.645,3.187 c0.342,0.676,0.609,1.39,0.789,2.087C251.528,247.694,249.532,247.013,248.38,246.284 M258.917,244.657 c0.557-0.797,1.21-1.466,1.887-1.916c0.68-0.451,1.362-0.683,2.047-0.683h0.006c0.574,0,1.117,0.22,1.494,0.55 c0.377,0.336,0.571,0.739,0.573,1.171c-0.004,0.512-0.272,1.259-1.467,2.132c-1.138,0.825-3.101,1.673-6.127,2.265 C257.62,246.974,258.177,245.704,258.917,244.657 M256.937,272.243h12.506v-13.91h-12.506V272.243z"/>
</svg>
