<svg version="1.1" id="Layer_1" xmlns="http://www.w3.org/2000/svg" xmlns:xlink="http://www.w3.org/1999/xlink" x="0px" y="0px" width="34.373px" height="34.373px" viewBox="0 0 34.373 34.373" enable-background="new 0 0 34.373 34.373" xml:space="preserve">
  <g>
    <path d="M0.286,14.069c-0.382,2.073-0.384,4.211,0.008,6.301l4.121-3.21L0.286,14.069z"/>
    <path d="M24.403,1.585C19.62-0.623,13.959-0.559,9.149,1.992l7.513,5.625L24.403,1.585z"/>
    <path d="M33.901,13.175l-4.811,3.748l4.936,3.695C34.522,18.173,34.489,15.63,33.901,13.175z"/>
    <path d="M9.209,32.414c4.844,2.534,10.724,2.65,15.73,0.113l-8.096-6.062L9.209,32.414z"/>
    <path d="M7.914,14.433L1.681,9.767c-0.32,0.669-0.595,1.356-0.825,2.056l5.308,3.974L7.914,14.433z"/>
    <path d="M18.593,25.102l8.336,6.242c0.277-0.191,0.551-0.391,0.82-0.601c0.318-0.248,0.625-0.505,0.92-0.771l-8.326-6.234 L18.593,25.102z"/>
    <path d="M11.413,11.707L4.002,6.158C3.54,6.709,3.117,7.285,2.733,7.881l6.931,5.189L11.413,11.707z"/>
    <path d="M22.093,22.375l8.092,6.059c0.471-0.544,0.904-1.112,1.297-1.701l-7.639-5.721L22.093,22.375z"/>
    <path d="M14.913,8.98L7.196,3.203C7.003,3.341,6.812,3.482,6.623,3.629C6.227,3.938,5.849,4.261,5.487,4.597l7.676,5.747 L14.913,8.98z"/>
    <path d="M25.592,19.649l6.972,5.221c0.33-0.662,0.615-1.341,0.855-2.033l-6.077-4.55L25.592,19.649z"/>
    <path d="M26.448,2.706L0.88,22.626c0.233,0.698,0.513,1.386,0.839,2.059l26.52-20.663C27.667,3.541,27.068,3.102,26.448,2.706z"/>
    <path d="M30.743,6.624c-0.301-0.386-0.614-0.754-0.939-1.106L2.786,26.567c0.262,0.402,0.542,0.797,0.843,1.183 c0.142,0.183,0.288,0.359,0.436,0.534L31.155,7.176C31.021,6.99,30.886,6.806,30.743,6.624z"/>
    <path d="M32.298,8.999L5.552,29.838c0.544,0.501,1.114,0.962,1.708,1.382l25.962-20.228C32.959,10.314,32.651,9.648,32.298,8.999z"/>
  </g>
</svg>
