<svg version="1.1" id="Layer_1" xmlns="http://www.w3.org/2000/svg" xmlns:xlink="http://www.w3.org/1999/xlink" x="0px" y="0px" width="54.156px" height="23.183px" viewBox="612.532 500.386 54.156 23.183" enable-background="new 612.532 500.386 54.156 23.183" xml:space="preserve">
  <g>
    <path d="M652.844,506.098c-3.647-0.971-7.839-1.667-12.359-1.666c-2.891,0.001-5.457,0.243-7.71,0.623l-6.784-4.668l-13.456,0.005 l5.811,6.184h8.447c-4.58,1.598-6.759,3.515-6.759,3.515l0.002,3.777c0,0,2.313,1.912,6.931,3.518l-8.623-0.005l-5.811,6.188 l13.455,0.002l6.816-4.692c2.261,0.398,4.822,0.647,7.681,0.648c4.522-0.001,8.712-0.697,12.36-1.667 c-1.176-1.775-1.915-3.743-1.918-5.877C650.93,509.842,651.665,507.871,652.844,506.098z"/>
    <path d="M656.267,507.132c-1.284,1.605-1.969,3.25-1.965,4.84c-0.007,1.597,0.677,3.238,1.968,4.847 c6.399-2.162,10.419-4.841,10.419-4.841S662.67,509.298,656.267,507.132z"/>
  </g>
</svg>
