<svg version="1.1" xmlns="http://www.w3.org/2000/svg" xmlns:xlink="http://www.w3.org/1999/xlink" x="0px" y="0px" width="148.051px" height="72.707px" viewBox="0 0 148.051 72.707" enable-background="new 0 0 148.051 72.707" xml:space="preserve">
  <g id="Layer_2">
    <g>
      <path d="M143.165,31.397c-1.481,1.055-3.053,1.942-4.657,2.777c0.037-1.747-0.119-3.465-0.591-5.127 c0.051-0.333,0.102-0.667,0.145-1.002c0.375-3.005,0.657-7.122-2.003-9.224c-0.335-0.265-1.249-0.035-1.922,0.274 c-0.157-0.151-0.322-0.289-0.496-0.415c-0.082-0.242-0.159-0.487-0.229-0.735c-0.035-0.12-0.168-0.188-0.36-0.215 c0.285-0.383,0.263-0.818-0.419-1.092c-0.378-0.152-0.759-0.287-1.143-0.413c-0.067-0.072-0.126-0.096-0.172-0.058 c-0.001,0.001-0.004,0.002-0.006,0.003c-0.938-0.3-1.893-0.533-2.859-0.705c0.138-0.331,0.396-0.813,0.552-1 c0.132-0.157,0.279-0.3,0.429-0.439c0.062-0.057,0.125-0.111,0.188-0.165c0.032-0.027,0.053-0.046,0.069-0.061 c0.02-0.014,0.046-0.034,0.084-0.062c0.38-0.288,0.846-0.865,0.221-1.202c-0.57-0.307-1.507-0.142-2.007,0.238 c-0.863,0.655-1.626,1.379-2.092,2.361c-2.01-0.169-4.05-0.155-6.079-0.078c0.062-0.076,0.112-0.158,0.141-0.25 c0.184-0.585-0.908-0.525-1.188-0.488c-1.562,0.205-3.125,0.407-4.688,0.604c1.367-3.773,3.083-8.578,1.001-12.264 c-1.19-2.106-3.906-2.579-6.098-2.652c-2.436-0.081-4.898,0.461-7.036,1.636c-4.762,2.618-7.11,7.71-8.21,13.138 c-0.497-0.657-2.301-0.425-2.645,0.468c-0.124,0.32-0.229,0.645-0.327,0.972c-0.16,0.174-0.282,0.386-0.345,0.637 c-0.015,0.056-0.027,0.111-0.041,0.167c-0.065,0.002-0.131,0.005-0.196,0.007c0.02-0.104,0.041-0.207,0.064-0.31 c0.146-0.109,0.247-0.232,0.28-0.366c0.574-2.296,1.156-4.588,1.948-6.82c0.269-0.756-2.511-0.399-2.804,0.426 c-0.424,1.193-0.786,2.403-1.12,3.622c-0.165,0.078-0.356,0.187-0.425,0.326c-0.017,0.034-0.031,0.07-0.047,0.104 c-0.107-0.093-0.271-0.151-0.466-0.178c0-0.319,0-0.639,0-0.959c0-0.432-2.823-0.034-2.823,0.757c0,0.522,0,1.046,0,1.568 c-0.167,0.072-0.327,0.158-0.472,0.266c-0.063,0.057-0.127,0.114-0.19,0.172c-0.073,0.071-0.113,0.152-0.12,0.245 c-0.007,0.026-0.013,0.053-0.023,0.078c-0.017,0.022-0.032,0.046-0.052,0.066c-0.126,0.128-0.184,0.335-0.027,0.467 c0.19,0.16,0.508,0.167,0.738,0.159c0.048-0.002,0.097-0.007,0.146-0.011c0,0.156,0,0.312,0,0.468 c-0.226-0.001-0.45-0.003-0.675-0.006l-0.411-0.051c-0.021-0.385-0.676-0.452-1.351-0.328c0.006-0.049,0.007-0.098-0.001-0.148 c-0.101-0.595-0.174-1.192-0.229-1.79c0.237-0.079,0.471-0.18,0.68-0.313c0.159-0.102,0.328-0.224,0.328-0.43 c0-0.064,0-0.13,0-0.194c0-0.18-0.412-0.204-0.499-0.208c-0.195-0.009-0.394,0.009-0.589,0.041 c-0.075-1.305-0.081-2.615-0.081-3.925c0-0.84-2.824-0.315-2.823,0.757c0,1.786,0.009,3.57,0.193,5.343 c-0.087-0.002-0.178,0.001-0.27,0.009c0-0.511,0-1.021,0-1.532c0-1.045-1.297-1.22-2.147-0.809 c0.313-0.262,0.489-0.622,0.37-1.039c-0.403-1.414-0.778-2.827-0.974-4.287c-0.188-1.394-3.017-0.677-2.824,0.756 c0.196,1.46,0.57,2.873,0.975,4.287c0.235,0.828,1.338,0.889,2.104,0.51c-0.227,0.196-0.373,0.452-0.373,0.76 c0,0.21,0,0.42,0,0.63c-0.189-0.098-0.439-0.16-0.77-0.16c-1.057,0-1.671,0.885-1.4,1.477c-0.164-0.027-0.327-0.054-0.491-0.083 c-0.382-1.248-0.686-2.514-0.714-3.83c-0.02-0.942-1.27-1.049-2.108-0.672c-0.008-0.056-0.022-0.111-0.049-0.168 c-0.385-0.804-0.567-1.674-0.78-2.533c-0.332-1.35-3.158-0.601-2.823,0.756c0.157,0.638,0.3,1.281,0.519,1.898 c-0.018,0.005-0.039,0.009-0.056,0.014c-0.3,0.081-0.601,0.205-0.854,0.387c-0.832,0.079-1.828,0.565-1.752,1.208 c0.058,0.478,0.131,0.953,0.209,1.427c-0.546,0.091-1.092,0.177-1.639,0.26c-0.289-0.787-0.499-1.601-0.618-2.443 c-0.131-0.924-1.555-0.854-2.332-0.26c-0.774-2.062-1.796-4.019-3.122-5.761c-2.621-3.439-7.097-4.613-11.242-3.794 c-1.9,0.376-3.735,1.184-5.043,2.646c-1.21,1.353-1.352,3.089-1.17,4.805c0.158,1.493,0.61,4.005,1.584,5.976 c-0.35-0.012-0.709,0.041-0.949,0.139c-0.283,0.117-0.561,0.248-0.833,0.388c-1.939,0.029-3.877,0.019-5.803-0.07 c-4.179-0.194-8.301-0.86-12.497-0.742c-0.923,0.026-1.534,0.719-1.465,1.262c-1.046,0.502-1.733,1.315-2.143,2.287 c-1.732-1.15-3.479-2.266-5.335-3.211c-0.689-0.351-3.3,0.707-2.285,1.224c1.84,0.938,3.561,2.072,5.278,3.216 c0.512,0.341,1.32,0.133,1.842-0.07c0.03-0.012,0.09-0.039,0.165-0.077c-0.306,1.44-0.157,3.067,0.241,4.493 c0.03,0.11,0.093,0.198,0.172,0.27c-0.021,0.338-0.023,0.677-0.007,1.015c-0.001,0.055-0.001,0.109-0.002,0.165 c-0.4,0.189-0.712,0.48-0.76,0.839c-0.188,1.411-0.278,2.82-0.305,4.229c-0.272,0.199-0.462,0.469-0.485,0.798 c-0.233,3.345,0.037,6.652,0.467,9.95c0.185,2.694,0.69,5.344,1.172,7.999c0.058,0.416,0.113,0.832,0.167,1.249 c-0.265,1.133-0.398,2.395-0.237,3.482c-0.881,0.171-1.729,0.866-1.233,1.617c0.765,1.158,1.644,2.018,2.606,2.649 c-0.633-0.103-1.42,0.11-1.871,0.555c-0.818,0.809-1.715,1.531-2.533,2.339c-0.429,0.424-0.314,0.935,0.289,1.078 c0.651,0.155,1.516-0.06,1.997-0.535c0.817-0.808,1.715-1.531,2.533-2.339c0.248-0.245,0.308-0.517,0.204-0.731 c3.21,1.735,7.235,1.27,11.114,0.943c-0.882,1.589-1.542,3.273-2.17,4.997c-0.262,0.719,2.507,0.373,2.801-0.436 c0.61-1.675,1.237-3.343,2.103-4.895c3.741,0.117,7.479,0.122,11.215,0.051c0.149,0.182,0.416,0.305,0.746,0.336 c3.27,0.311,6.489-0.096,9.688-0.699c4.789-0.229,9.577-0.525,14.366-0.809c7.527-0.186,15.056-0.346,22.587-0.32 c0.1,0.109,0.204,0.215,0.314,0.318c0.272,0.256,0.621,0.345,0.979,0.33c0.062,0.009,0.128,0.016,0.199,0.019 c0.714,0.036,1.428,0.087,2.141,0.145c0.156,0.04,0.341,0.059,0.559,0.046c0.002,0,0.004,0,0.005,0 c0.782,0.067,1.563,0.14,2.346,0.208c0.171,0.214,0.497,0.342,0.792,0.361c3.804,0.25,7.612,0.522,11.423,0.703 c0.14,0.229,0.536,0.34,0.82,0.343c7.067,0.06,15.278,2.804,21.558-1.736c0.501-0.362,0.273-0.877-0.264-0.984 c-0.108-0.021-0.217-0.031-0.326-0.034c0.008-0.016,0.018-0.03,0.023-0.045c1.195-2.769,2.174-5.633,2.945-8.552 c0.365-0.198,0.632-0.494,0.646-0.86c0.049-1.189,0.188-2.406,0.371-3.639c0.166-0.884,0.313-1.771,0.441-2.66 c0.387-2.169,0.806-4.367,1.018-6.541c2.28-1.147,4.538-2.335,6.622-3.819C146.562,31.417,144.213,30.651,143.165,31.397z M87.835,16.351c-0.049,0.039-0.094,0.079-0.134,0.123c0.073-0.312,0.149-0.623,0.228-0.934c0.036,0.001,0.073,0.001,0.111,0 C87.972,15.81,87.902,16.081,87.835,16.351z"/>
      <path d="M63.261,12.626c0.127,0.196,0.562,0.217,0.753,0.217c0.377,0.001,0.759-0.083,1.106-0.225 c0.404-0.166,1.101-0.559,0.77-1.07c-0.363-0.562-0.609-1.19-0.975-1.754c-0.127-0.196-0.562-0.217-0.754-0.217 c-0.376-0.001-0.758,0.083-1.105,0.226c-0.404,0.165-1.101,0.558-0.77,1.069C62.649,11.434,62.896,12.063,63.261,12.626z"/>
      <path d="M20.683,10.907c0.216,0.647,1.111,0.647,1.648,0.504c0.472-0.127,1.39-0.616,1.175-1.26 c-0.208-0.624-0.433-1.293-0.893-1.78c-0.479-0.507-1.324-0.417-1.902-0.151c-0.412,0.19-1.177,0.838-0.695,1.349 C20.398,9.974,20.494,10.341,20.683,10.907z"/>
      <path d="M30.66,13.895c0.843,0,3.073-1.276,1.186-1.276C31.003,12.619,28.772,13.895,30.66,13.895z"/>
      <path d="M122.562,12.274c0.346,0.072,0.717,0.032,1.055-0.059c0.321-0.086,0.7-0.234,0.941-0.477 c0.355-0.355,0.728-0.729,0.962-1.178c0.104-0.198,0.174-0.399-0.005-0.587c-0.188-0.197-0.507-0.245-0.763-0.251 c-0.376-0.01-0.761,0.074-1.106,0.22c-0.252,0.106-0.621,0.294-0.756,0.553c-0.098,0.186-0.218,0.353-0.351,0.513 c-0.008,0.009-0.016,0.018-0.023,0.027c-0.011,0.012-0.021,0.023-0.028,0.032c-0.064,0.067-0.13,0.133-0.195,0.199 c-0.158,0.158-0.346,0.365-0.279,0.614C122.077,12.121,122.347,12.229,122.562,12.274z"/>
      <path d="M135.861,17.692c0.631-0.061,1.395-0.246,1.894-0.662c1.319-1.102,2.603-2.248,3.623-3.642 c0.288-0.393-1.049-0.243-1.118-0.23c-0.534,0.099-1.316,0.276-1.661,0.746c-0.949,1.296-2.164,2.349-3.391,3.374 C134.71,17.693,135.649,17.712,135.861,17.692z"/>
      <path d="M146.74,44.769c-1.624,0-3.248,0-4.872,0c-0.616,0-1.475,0.468-1.556,1.139c-0.09,0.739,0.754,0.922,1.304,0.922 c1.624,0,3.248,0,4.871,0c0.617,0,1.475-0.468,1.557-1.139C148.134,44.952,147.29,44.769,146.74,44.769z"/>
      <path d="M57.021,60.784c-0.498,0.08-1.412,0.296-1.639,0.831c-0.538,1.272-0.981,2.571-1.364,3.897 c-0.211,0.733,2.571,0.333,2.798-0.451c0.383-1.327,0.825-2.625,1.363-3.897C58.401,60.637,57.213,60.752,57.021,60.784z"/>
      <path d="M61.602,63.375c-0.347-0.003-0.696,0.063-1.029,0.152c-0.333,0.089-0.67,0.207-0.968,0.383 c-0.141,0.084-0.338,0.2-0.338,0.39c-0.001,0.116-0.007,0.231-0.021,0.346c-0.025,0.103-0.06,0.2-0.125,0.286 c0.004-0.004,0.008-0.009,0.012-0.014c-0.064,0.082-0.108,0.179,0.018,0.253c0.196,0.114,0.502,0.083,0.712,0.062 c0.374-0.037,0.745-0.127,1.099-0.252c0.243-0.085,0.613-0.207,0.795-0.407c0.149-0.164,0.241-0.286,0.284-0.501 c0.035-0.177,0.05-0.349,0.05-0.529C62.09,63.378,61.669,63.376,61.602,63.375z"/>
      <path d="M116.652,67.051c-0.354-0.686-3.043,0.331-2.823,0.757c0.844,1.638,1.939,3.122,2.923,4.677 c0.436,0.689,3.04-0.414,2.823-0.757C118.593,70.174,117.496,68.689,116.652,67.051z"/>
      <path d="M120.744,64.713c-0.294-0.588-1.067-0.563-1.624-0.414c-0.35,0.094-1.485,0.598-1.199,1.17 c0.39,0.78,0.779,1.559,1.169,2.339c0.294,0.588,1.068,0.562,1.624,0.414c0.35-0.094,1.486-0.598,1.199-1.171 C121.523,66.272,121.134,65.493,120.744,64.713z"/>
      <path d="M5.668,43.105c-1.486,0.359-3.006,0.571-4.481,0.975c-0.537,0.146-1.342,0.641-1.16,1.318 c0.181,0.675,1.128,0.709,1.664,0.562c1.476-0.403,2.995-0.615,4.482-0.975c0.541-0.13,1.338-0.651,1.16-1.318 C7.148,42.982,6.209,42.975,5.668,43.105z"/>
    </g>
  </g>
  <g id="Layer_1">
    <g>
      <path fill="#FFFFFF" d="M43.752,40.106c-0.083-2.707-0.514-5.396-0.479-8.108c0.028-2.194,0.393-4.45-0.363-6.554 c0.047-0.239,0.097-0.477,0.141-0.717c0.195-1.055-3.3-0.497-3.849,0.468c-0.346,0.283-0.523,0.621-0.377,0.965 c0.037,0.087,0.069,0.175,0.102,0.263c-0.662,3.233-1.584,6.364-2.645,9.498c-0.406,1.199-0.896,2.37-1.31,3.565 c-0.587-1.114-1.181-2.214-1.658-3.408c-1.386-3.464-2.636-6.965-4.326-10.299c0.192-1.543-3.232-1.381-3.907,0.032 c-0.816,1.709-0.711,3.434-0.442,5.262c0.303,2.061,0.356,4.086,0.381,6.167c0.048,4.012,0.361,8.016,0.421,12.027 c-0.357,0.397-0.466,0.889-0.092,1.388c0.163,0.217,0.365,0.385,0.576,0.554c0.913,0.73,3.533,0.108,3.528-1.283 c-0.014-4.16-0.314-8.312-0.424-12.471c-0.011-0.407-0.018-0.814-0.024-1.222c0.058,0.146,0.115,0.293,0.173,0.438 c0.646,1.618,1.322,3.191,2.205,4.696c0.876,1.491,1.315,3.092,1.819,4.719c-0.19,0.219-0.305,0.467-0.234,0.715 c-0.04,0.181,0.071,0.294,0.253,0.363c0.645,0.552,1.858,0.277,2.532-0.007c0.29-0.122,0.566-0.263,0.834-0.427 c0.348-0.215,0.891-0.686,0.735-1.17c-0.03-0.093-0.059-0.187-0.088-0.281c0.475-1.281,0.716-2.612,0.975-3.965 c0.275-1.441,0.789-2.805,1.307-4.171c0.053,0.625,0.107,1.249,0.157,1.872c0.206,2.577,0.033,5.118,0.008,7.696 c-0.009,0.854,0.054,1.648,0.221,2.484c0.068,0.345,0.37,1.824,0.283,1.904c-0.617,0.57-0.438,1.268,0.389,1.45 c0.923,0.203,2.1-0.106,2.795-0.749c1.209-1.117,0.638-2.871,0.364-4.28C43.273,45.158,43.826,42.512,43.752,40.106z"/>
      <path fill="#FFFFFF" d="M52.192,40.788c-0.074-2.007-0.771-3.897-0.781-5.925c-0.011-2.327,0.183-4.635-0.156-6.949 c-0.107-0.732-4.093,0.101-3.953,1.059c0.312,2.129,0.199,4.268,0.161,6.412c-0.037,2.063,0.472,3.934,0.737,5.958 c0.271,2.073-0.085,4.195,0.15,6.271c0.11,0.971,0.758,2.768,0.09,3.612c-0.424,0.537,1.482,0.345,1.568,0.33 c0.775-0.143,1.809-0.395,2.324-1.048c0.659-0.835,0.198-2.448,0.054-3.387C52.066,45.041,52.271,42.885,52.192,40.788z"/>
      <path fill="#FFFFFF" d="M68.671,37.438c-2.081-2.809-5.943-0.787-8.64-1.554c-1.39-0.396-1.407-2.292-1.403-3.428 c0.004-1.439-0.115-2.757-0.276-4.184c-0.119-1.061-0.024-2.14,0.753-2.93c0.143-0.146,0.866-0.339,0.817-0.342 c0.356-0.062,0.683-0.077,1.077-0.094c1.562-0.067,4.654,0.234,4.056,2.506c-0.269,1.019,3.629,0.435,3.913-0.643 c1.224-4.64-7.352-3.749-9.774-3.106c-2.231,0.592-4.692,1.862-4.819,4.438c-0.062,1.23,0.274,2.401,0.328,3.62 c0.061,1.403-0.2,2.802,0.291,4.155c1.092,3.01,5.57,1.59,7.849,1.761c3.88,0.29,2.722,5.519,2.772,7.955 c0.027,1.3,1.192,3.461,0.213,4.549c-0.601,0.668-2,0.706-2.817,0.774c-0.821,0.069-2.221,0.315-2.768-0.465 c-1.002-1.431,0.093-3.834-0.121-5.474c-0.122-0.933-4.104-0.096-3.953,1.059c0.346,2.651-1.412,6.2,2.424,6.655 c2.464,0.293,5.238-0.162,7.568-0.936c1.207-0.4,2.328-0.951,3.272-1.81c1.045-0.949,0.701-2.369,0.421-3.579 C69.172,43.422,70.593,40.032,68.671,37.438z"/>
      <path fill="#FFFFFF" d="M86.155,37.248c-0.122-3.812-0.696-7.582-0.711-11.4c-0.009-1.989-4-1.317-3.993,0.346 c0.015,3.641,0.501,7.232,0.688,10.862c0.003,0.074,0.008,0.148,0.012,0.223c-1.967-0.018-3.934,0.179-5.905,0.248 c0.203-4.675-0.617-9.311-0.438-13.983c0.022-0.587-3.909-0.091-3.953,1.059c-0.172,4.516,0.593,8.997,0.457,13.514 c-0.064,2.155-0.247,4.303-0.262,6.46c-0.008,1.105,0.173,2.204,0.332,3.293c0.147,1.008,0.488,2.352,0.183,3.349 c-0.238,0.779,3.594,0.293,3.897-0.701c0.55-1.794-0.224-4.076-0.408-5.892c-0.177-1.74-0.04-3.53,0.084-5.296 c2.048-0.131,4.096-0.3,6.135-0.012c0.091,1.391,0.197,2.779,0.325,4.172c0.106,1.168,0.181,2.334,0.198,3.507 c0.016,1.028,0.143,2.519-0.223,3.492c-0.78,2.075,3.179,1.906,3.757,0.368c0.71-1.887,0.507-4.237,0.386-6.22 C86.565,42.169,86.235,39.717,86.155,37.248z"/>
      <path fill="#FFFFFF" d="M103.242,41.762c-0.948-2.783-2.395-5.224-3.649-7.868c1.01-1.967,2.036-3.935,2.959-5.942 c0.838-1.824,1.459-3.854,3.107-5.139c0.579-0.451,0.555-0.904-0.258-0.96c-0.883-0.061-2.083,0.194-2.795,0.749 c-1.498,1.168-2.448,2.587-3.229,4.307c-0.94,2.069-1.914,4.101-2.94,6.13c-0.074,0.149-0.15,0.298-0.226,0.448 c-0.494,0.318-0.792,0.769-0.645,1.277c-0.798,1.578-1.614,3.146-2.521,4.653c-0.302-5.584-0.963-11.162-1.161-16.751 c-0.045-1.281-4.007-0.484-3.953,1.059c0.246,6.93,1.23,13.845,1.299,20.775c-0.017,0.017-0.032,0.034-0.049,0.051 c-0.303,0.311-0.191,0.498,0.053,0.606c0.002,1.767-0.06,3.534-0.211,5.303c-0.477,0.752,0.467,1.149,1.094,1.149 c0.033,0,0.065,0,0.098,0c0.746,0,2.649-0.353,2.742-1.376c0.193-2.119,0.254-4.234,0.234-6.349 c1.605-1.731,2.916-3.663,4.093-5.687c0.766,1.494,1.495,3,2.007,4.625c0.868,2.766,2.32,5.308,3.159,8.087 c0.55,1.822,4.497,0.745,3.952-1.059C105.563,47.072,104.177,44.505,103.242,41.762z"/>
      <path fill="#FFFFFF" d="M126.96,37.085c-0.212-0.84-1.385-0.857-2.292-0.777c-0.013-0.338-0.021-0.677-0.036-1.016 c-0.127-2.686-0.168-5.428-0.396-8.105c-0.211-2.479-1.599-3.368-4.008-3.276c-2.438,0.093-5.277,0.532-7.55,1.416 c-2.632,1.023-4.096,2.961-4.601,5.733c-0.555,3.041,0.242,6.275,0.377,9.331c0.155,3.535,0.066,7.078,0.062,10.614 c0,0.579,3.952,0.031,3.953-1.059c0.003-2.801,0.043-5.602,0-8.402c-0.014-0.826-0.052-1.647-0.104-2.466 c1.382-0.599,3.721,0.013,5.097,0.143c1.117,0.105,2.188-0.167,3.273-0.294c0.021,2.333,0.108,4.678,0.204,7.008 c0.049,1.194,0.481,3.563-0.356,4.552c-0.44,0.521,1.493,0.347,1.568,0.333c0.801-0.147,1.777-0.404,2.324-1.05 c0.958-1.13,0.46-3.824,0.405-5.173c-0.079-1.928-0.103-3.859-0.143-5.789C125.903,38.656,127.177,37.943,126.96,37.085z M112.208,36.933c-0.104-1.257-0.219-2.513-0.306-3.777c-0.161-2.352,0.118-5.634,2.31-7.062c0.587-0.383,1.691-0.317,2.377-0.442 c0.979-0.177,1.974-0.393,2.855,0.192c1.221,0.81,0.92,3.69,0.918,4.913c-0.002,2.024,0.21,4.038,0.313,6.058 c-0.558,0.056-1.122,0.09-1.698,0.077C116.67,36.837,114.393,36.474,112.208,36.933z"/>
      <path fill="#FFFFFF" d="M48.771,25.176c0.526-0.051,1.055-0.229,1.49-0.529c0.087-0.073,0.173-0.146,0.26-0.219 c0.524-0.338,0.979-0.834,0.734-1.373c-0.509-1.115-0.428-2.251-0.42-3.445c0.007-0.966-0.972-1.257-1.797-1.185 c-0.729,0.064-2.188,0.586-2.194,1.534c-0.007,1.002-0.072,2.034,0.11,3.02c-0.049,0.113-0.075,0.241-0.105,0.358 c-0.056,0.214,0.016,0.424,0.144,0.595c0,0.045,0.002,0.09,0.002,0.135c0.005,0.113,0.011,0.226,0.015,0.338 c0.074,0.235,0.218,0.413,0.433,0.535C47.833,25.176,48.327,25.219,48.771,25.176z"/>
    </g>
  </g>
</svg>
