<svg version="1.1" id="Layer_2" xmlns="http://www.w3.org/2000/svg" xmlns:xlink="http://www.w3.org/1999/xlink" x="0px" y="0px" width="85.589px" height="35.034px" viewBox="32.458 20.216 85.589 35.034" enable-background="new 32.458 20.216 85.589 35.034" xml:space="preserve">
  <g>
    <path d="M36.638,46.517c-0.014-3.472-0.262-6.938-0.356-10.409c-0.008-0.34-0.015-0.681-0.02-1.021 c0.049,0.122,0.097,0.243,0.146,0.364c0.54,1.352,1.103,2.663,1.839,3.92c0.731,1.244,1.099,2.58,1.521,3.939 c-0.159,0.182-0.256,0.39-0.196,0.596c-0.033,0.15,0.059,0.245,0.212,0.306c0.537,0.46,1.55,0.231,2.113-0.008 c0.242-0.102,0.474-0.221,0.696-0.355c0.29-0.181,0.744-0.572,0.613-0.977c-0.024-0.079-0.049-0.157-0.072-0.235 c0.396-1.068,0.598-2.179,0.813-3.308c0.23-1.206,0.659-2.345,1.092-3.485c0.043,0.521,0.088,1.044,0.129,1.56 c0.174,2.147,0.028,4.27,0.008,6.422c-0.008,0.713,0.046,1.375,0.184,2.075c0.059,0.287,0.31,1.521,0.235,1.58 c-0.516,0.476-0.366,1.061,0.326,1.211c0.771,0.169,1.753-0.088,2.333-0.625c1.009-0.934,0.531-2.396,0.304-3.572 c-0.385-1.973,0.077-4.181,0.017-6.189c-0.069-2.26-0.43-4.503-0.399-6.769c0.023-1.831,0.328-3.714-0.303-5.471 c0.039-0.2,0.08-0.398,0.117-0.6c0.163-0.879-2.754-0.414-3.212,0.392c-0.29,0.235-0.438,0.519-0.313,0.806 c0.031,0.071,0.057,0.146,0.084,0.219c-0.552,2.699-1.321,5.313-2.207,7.93c-0.339,1.001-0.748,1.977-1.095,2.978 c-0.49-0.933-0.986-1.851-1.384-2.847c-1.155-2.891-2.199-5.813-3.61-8.596c0.16-1.289-2.698-1.153-3.261,0.02 c-0.682,1.426-0.592,2.866-0.369,4.393c0.254,1.721,0.298,3.411,0.32,5.147c0.039,3.347,0.3,6.689,0.351,10.04 c-0.298,0.331-0.389,0.741-0.078,1.158c0.136,0.182,0.306,0.321,0.482,0.46C34.454,48.198,36.643,47.679,36.638,46.517z"/>
    <path d="M54.834,28.145c-0.089-0.613-3.416,0.084-3.3,0.885c0.259,1.776,0.167,3.561,0.136,5.352 c-0.031,1.722,0.394,3.282,0.615,4.971c0.226,1.732-0.071,3.502,0.126,5.235c0.09,0.812,0.632,2.312,0.074,3.018 c-0.354,0.447,1.237,0.285,1.31,0.275c0.646-0.12,1.509-0.331,1.938-0.875c0.552-0.697,0.165-2.042,0.045-2.82 c-0.267-1.734-0.097-3.537-0.162-5.286c-0.061-1.676-0.644-3.254-0.65-4.946C54.957,32.001,55.119,30.077,54.834,28.145z"/>
    <path d="M57.958,34.791c0.91,2.514,4.648,1.327,6.551,1.471c3.238,0.239,2.272,4.607,2.313,6.641 c0.022,1.085,0.995,2.889,0.179,3.798c-0.502,0.556-1.669,0.589-2.352,0.646c-0.687,0.057-1.854,0.261-2.312-0.39 c-0.836-1.194,0.077-3.2-0.102-4.568c-0.103-0.78-3.424-0.08-3.299,0.884c0.29,2.211-1.179,5.175,2.022,5.556 c2.059,0.244,4.372-0.136,6.317-0.783c1.008-0.334,1.943-0.792,2.731-1.509c0.872-0.794,0.585-1.979,0.352-2.987 c-0.569-2.458,0.616-5.289-0.987-7.454c-1.738-2.345-4.962-0.657-7.212-1.297c-1.161-0.33-1.175-1.911-1.17-2.86 c0.002-1.202-0.098-2.302-0.231-3.491c-0.1-0.887-0.021-1.787,0.628-2.447c0.119-0.121,0.723-0.283,0.681-0.28 c0.299-0.051,0.572-0.062,0.9-0.076c1.304-0.056,3.885,0.195,3.386,2.092c-0.226,0.851,3.028,0.363,3.266-0.53 c1.021-3.874-6.138-3.131-8.159-2.593c-1.863,0.494-3.916,1.555-4.023,3.704c-0.052,1.027,0.229,2.006,0.274,3.022 C57.764,32.494,57.546,33.662,57.958,34.791z"/>
    <path d="M72.413,36.661c-0.053,1.799-0.208,3.593-0.22,5.393c-0.006,0.921,0.146,1.842,0.278,2.75 c0.122,0.841,0.407,1.964,0.152,2.796c-0.198,0.646,3,0.242,3.254-0.587c0.458-1.497-0.188-3.402-0.341-4.918 c-0.147-1.451-0.032-2.945,0.072-4.42c1.708-0.11,3.418-0.249,5.119-0.011c0.076,1.163,0.164,2.321,0.272,3.48 c0.088,0.976,0.151,1.948,0.164,2.929c0.015,0.855,0.12,2.099-0.185,2.913c-0.651,1.731,2.655,1.59,3.136,0.30 c0.592-1.577,0.423-3.537,0.323-5.194c-0.13-2.059-0.404-4.106-0.47-6.166c-0.102-3.183-0.58-6.329-0.594-9.51 c-0.007-1.661-3.338-1.099-3.331,0.288c0.012,3.04,0.417,6.037,0.571,9.068c0.005,0.061,0.008,0.121,0.01,0.18 c-1.64-0.016-3.281,0.149-4.929,0.207c0.171-3.902-0.515-7.771-0.364-11.672c0.02-0.492-3.264-0.077-3.3,0.883 C71.887,29.151,72.526,32.891,72.413,36.661z"/>
    <path d="M86.493,42.032c-0.254,0.259-0.159,0.414,0.045,0.506c0.001,1.474-0.05,2.949-0.178,4.424 c-0.396,0.63,0.39,0.96,0.912,0.96c0.028,0,0.055,0,0.082,0c0.622,0,2.209-0.293,2.289-1.148c0.162-1.769,0.211-3.535,0.196-5.299 c1.337-1.446,2.434-3.057,3.416-4.748c0.64,1.248,1.247,2.505,1.676,3.861c0.725,2.31,1.938,4.431,2.637,6.75 c0.459,1.521,3.754,0.621,3.298-0.885c-0.701-2.319-1.856-4.462-2.638-6.75c-0.791-2.322-1.998-4.361-3.046-6.568 c0.845-1.641,1.699-3.283,2.47-4.96c0.698-1.524,1.219-3.216,2.594-4.289c0.483-0.376,0.464-0.755-0.216-0.801 c-0.737-0.054-1.738,0.159-2.334,0.625c-1.25,0.974-2.042,2.158-2.694,3.595c-0.784,1.726-1.598,3.421-2.455,5.117 c-0.061,0.123-0.125,0.248-0.188,0.373c-0.412,0.264-0.66,0.642-0.539,1.064c-0.666,1.316-1.347,2.627-2.104,3.885 c-0.252-4.661-0.803-9.317-0.969-13.983c-0.036-1.068-3.345-0.403-3.297,0.886c0.204,5.785,1.024,11.557,1.083,17.34 C86.52,42.002,86.505,42.018,86.493,42.032z"/>
    <path d="M118.027,35.8c-0.177-0.701-1.155-0.716-1.914-0.648c-0.01-0.281-0.017-0.566-0.029-0.849 c-0.106-2.241-0.139-4.53-0.329-6.765c-0.176-2.069-1.335-2.812-3.346-2.734c-2.035,0.077-4.404,0.443-6.302,1.183 c-2.197,0.853-3.421,2.471-3.841,4.784c-0.464,2.539,0.201,5.238,0.313,7.789c0.13,2.951,0.056,5.909,0.054,8.859 c0,0.484,3.297,0.027,3.297-0.884c0.004-2.338,0.037-4.676,0-7.014c-0.011-0.688-0.043-1.374-0.085-2.057 c1.155-0.499,3.106,0.01,4.255,0.118c0.933,0.089,1.826-0.138,2.732-0.244c0.017,1.946,0.09,3.905,0.17,5.851 c0.042,0.997,0.402,2.975-0.297,3.799c-0.368,0.436,1.249,0.288,1.31,0.28c0.668-0.124,1.482-0.338,1.939-0.87 c0.8-0.942,0.384-3.192,0.338-4.316c-0.065-1.611-0.086-3.223-0.121-4.834C117.144,37.111,118.208,36.515,118.027,35.8z M111.365,35.638c-1.928-0.046-3.828-0.349-5.651,0.036c-0.086-1.051-0.183-2.098-0.255-3.154 c-0.134-1.962,0.099-4.702,1.928-5.896c0.492-0.318,1.413-0.264,1.984-0.368c0.819-0.147,1.647-0.328,2.384,0.16 c1.018,0.676,0.769,3.08,0.766,4.101c-0.002,1.69,0.177,3.37,0.262,5.059C112.317,35.622,111.844,35.648,111.365,35.638z"/>
    <path d="M51.159,24.322c-0.048,0.18,0.013,0.356,0.119,0.497c0,0.039,0.002,0.075,0.002,0.114c0.004,0.094,0.009,0.188,0.013,0.282 c0.062,0.194,0.182,0.343,0.362,0.446c0.325,0.196,0.737,0.232,1.108,0.196c0.439-0.041,0.882-0.191,1.245-0.439 c0.072-0.062,0.143-0.122,0.216-0.183c0.438-0.282,0.818-0.697,0.612-1.146c-0.424-0.932-0.358-1.88-0.35-2.87 c0.005-0.808-0.812-1.051-1.501-0.989c-0.608,0.054-1.827,0.489-1.831,1.279c-0.007,0.836-0.062,1.698,0.092,2.522 C51.206,24.119,51.182,24.225,51.159,24.322z"/>
    <path d="M112.736,53.505c-1.558-0.585-3.283-0.615-4.851-0.787c-1.603-0.17-3.245-0.41-4.884-0.562 c-1.637,0.053-3.31,0.027-4.972,0.129l-4.88,0.268c-6.487,0.289-12.999,0.253-19.517,0.107c-6.517-0.123-13.045-0.477-19.63-0.453 c-3.288,0.008-6.565,0.099-9.862,0.25c-1.632,0.283-3.239,0.501-4.904,0.913c-1.615,0.399-3.145,0.907-4.794,1.048 c1.623,0.362,3.341,0.292,4.962,0.297c1.579,0.01,3.243,0.143,4.872,0.231c3.229-0.172,6.487-0.246,9.733-0.25 c6.487-0.024,13.015,0.329,19.565,0.451c6.548,0.146,13.114,0.186,19.683-0.11l4.907-0.269c1.603-0.071,3.198-0.127,4.829-0.067 c1.628-0.148,3.253-0.33,4.918-0.532c1.664-0.238,3.22-0.627,4.854-0.509l0.074,0.006l0.006-0.055 c0.021-0.178-0.04-0.323-0.04-0.479C112.772,53.251,112.767,53.388,112.736,53.505z"/>
  </g>
</svg>
