<svg version="1.1" id="Layer_1" xmlns="http://www.w3.org/2000/svg" xmlns:xlink="http://www.w3.org/1999/xlink" x="0px" y="0px" width="112.389px" height="46.087px" viewBox="19.137 15.003 112.389 46.087" enable-background="new 19.137 15.003 112.389 46.087" xml:space="preserve">
  <g id="Layer_2">
    <g>
      <path d="M129.364,56.884c4.394,0.868,0.843-35.858,0.147-38.311c-1.96-6.569-26.677-2.144-32.18-1.717 c-12.723,0.987-25.189-0.96-37.611-0.376c-6.205,0.292-34.854-1.813-37.519,1.986c-5.048,7.208-2.652,25.797-1.278,35.076 c-4.043,0.779,2.309,4.154,3.138,4.897c6.314,2.192,16.358-0.219,23.007,0.396c15.434,1.472,31.797-2.194,47.276-0.955 c4.496,1.144,9.604,1.019,14.224,1.239C111.982,64.691,128.232,56.658,129.364,56.884 C129.264,56.864,129.871,56.984,129.364,56.884z"/>
    </g>
  </g>
  <g id="Layer_1_1_">
    <g>
      <path fill="#FFFFFF" d="M45.195,39.413c-0.079-2.546-0.484-5.074-0.451-7.624c0.026-2.063,0.37-4.185-0.341-6.164 c0.043-0.225,0.091-0.449,0.132-0.675c0.184-0.992-3.103-0.467-3.62,0.44c-0.325,0.266-0.492,0.584-0.354,0.908 c0.035,0.082,0.065,0.165,0.096,0.247c-0.623,3.041-1.49,5.985-2.487,8.932c-0.382,1.128-0.843,2.229-1.232,3.354 c-0.553-1.049-1.111-2.083-1.56-3.206c-1.303-3.257-2.479-6.55-4.068-9.685c0.181-1.452-3.039-1.299-3.674,0.03 c-0.767,1.607-0.668,3.229-0.416,4.948c0.285,1.938,0.334,3.842,0.358,5.8c0.045,3.771,0.339,7.537,0.396,11.311 c-0.335,0.372-0.438,0.835-0.087,1.305c0.153,0.203,0.344,0.362,0.542,0.521c0.858,0.687,3.323,0.101,3.318-1.207 c-0.013-3.911-0.295-7.815-0.399-11.727c-0.01-0.383-0.017-0.766-0.022-1.149c0.055,0.137,0.108,0.275,0.163,0.411 c0.607,1.522,1.243,3.001,2.073,4.416c0.824,1.401,1.237,2.908,1.711,4.438c-0.179,0.206-0.288,0.439-0.221,0.674 c-0.038,0.169,0.067,0.275,0.238,0.342c0.606,0.519,1.747,0.261,2.381-0.008c0.273-0.114,0.532-0.247,0.784-0.401 c0.327-0.202,0.838-0.645,0.691-1.1c-0.028-0.089-0.056-0.176-0.083-0.265c0.447-1.204,0.674-2.456,0.917-3.728 c0.259-1.356,0.742-2.64,1.229-3.924c0.049,0.587,0.1,1.176,0.147,1.762c0.194,2.422,0.031,4.812,0.008,7.236 c-0.009,0.803,0.05,1.55,0.208,2.337c0.064,0.324,0.348,1.714,0.266,1.79c-0.581,0.535-0.412,1.192,0.366,1.363 c0.868,0.19,1.975-0.101,2.628-0.705c1.137-1.05,0.6-2.699,0.342-4.024C44.745,44.165,45.265,41.677,45.195,39.413z"/>
      <path fill="#FFFFFF" d="M53.132,40.056c-0.069-1.888-0.725-3.666-0.734-5.573c-0.01-2.188,0.172-4.358-0.146-6.535 c-0.101-0.688-3.849,0.095-3.717,0.996c0.293,2.002,0.187,4.014,0.151,6.029c-0.035,1.941,0.444,3.699,0.694,5.603 c0.254,1.95-0.081,3.945,0.141,5.897c0.103,0.913,0.712,2.603,0.084,3.398c-0.398,0.505,1.394,0.322,1.474,0.31 c0.729-0.136,1.702-0.372,2.186-0.987c0.62-0.784,0.186-2.3,0.051-3.185C53.014,44.054,53.206,42.026,53.132,40.056z"/>
      <path fill="#FFFFFF" d="M68.629,36.903c-1.957-2.641-5.589-0.739-8.125-1.46c-1.308-0.372-1.323-2.155-1.319-3.224 c0.003-1.353-0.108-2.592-0.26-3.935c-0.112-0.998-0.022-2.013,0.708-2.755c0.135-0.137,0.815-0.318,0.768-0.322 c0.335-0.058,0.643-0.072,1.013-0.088c1.469-0.063,4.376,0.22,3.814,2.356c-0.253,0.958,3.413,0.409,3.68-0.604 c1.15-4.364-6.914-3.526-9.192-2.921c-2.098,0.557-4.412,1.751-4.531,4.174c-0.059,1.156,0.257,2.258,0.309,3.404 c0.057,1.319-0.188,2.635,0.273,3.907c1.027,2.831,5.238,1.495,7.38,1.656c3.65,0.271,2.561,5.19,2.608,7.48 c0.025,1.224,1.121,3.255,0.2,4.278c-0.565,0.627-1.881,0.664-2.649,0.729c-0.772,0.064-2.089,0.296-2.604-0.438 c-0.942-1.345,0.087-3.605-0.114-5.146c-0.115-0.879-3.859-0.091-3.717,0.995c0.325,2.492-1.328,5.83,2.279,6.258 c2.318,0.275,4.926-0.152,7.118-0.881c1.135-0.376,2.188-0.894,3.077-1.701c0.982-0.892,0.659-2.228,0.396-3.365 C69.1,42.531,70.436,39.344,68.629,36.903z"/>
      <path fill="#FFFFFF" d="M85.07,36.725c-0.114-3.584-0.653-7.129-0.669-10.719c-0.007-1.871-3.762-1.239-3.754,0.325 c0.014,3.424,0.472,6.801,0.646,10.215c0.004,0.068,0.008,0.138,0.012,0.209c-1.85-0.017-3.699,0.169-5.553,0.233 c0.191-4.396-0.58-8.756-0.411-13.149c0.021-0.553-3.677-0.085-3.718,0.995c-0.162,4.248,0.558,8.461,0.43,12.709 c-0.061,2.026-0.232,4.046-0.247,6.074c-0.007,1.039,0.164,2.074,0.312,3.098c0.138,0.947,0.458,2.212,0.172,3.149 c-0.224,0.731,3.379,0.275,3.666-0.659c0.516-1.687-0.211-3.834-0.383-5.541c-0.167-1.636-0.039-3.319,0.078-4.98 c1.925-0.123,3.852-0.281,5.77-0.011c0.084,1.308,0.186,2.613,0.305,3.924c0.101,1.099,0.171,2.194,0.187,3.298 c0.016,0.966,0.135,2.367-0.21,3.282c-0.733,1.953,2.99,1.792,3.533,0.347c0.667-1.775,0.477-3.984,0.363-5.85 C85.455,41.354,85.145,39.047,85.07,36.725z"/>
      <path fill="#FFFFFF" d="M101.139,40.971c-0.892-2.617-2.252-4.913-3.431-7.399c0.95-1.85,1.915-3.7,2.782-5.588 c0.788-1.715,1.373-3.624,2.922-4.833c0.545-0.424,0.522-0.85-0.243-0.902c-0.83-0.058-1.958,0.182-2.629,0.704 c-1.408,1.099-2.301,2.433-3.035,4.05c-0.885,1.946-1.801,3.856-2.765,5.765c-0.069,0.14-0.141,0.28-0.213,0.421 c-0.465,0.3-0.744,0.723-0.606,1.201c-0.75,1.484-1.518,2.959-2.371,4.375c-0.283-5.25-0.905-10.496-1.093-15.752 c-0.041-1.205-3.768-0.455-3.715,0.996c0.23,6.517,1.155,13.021,1.221,19.536c-0.017,0.017-0.031,0.033-0.047,0.048 c-0.285,0.293-0.179,0.469,0.051,0.571c0.002,1.66-0.057,3.322-0.199,4.985c-0.448,0.709,0.439,1.081,1.029,1.081 c0.031,0,0.061,0,0.092,0c0.701,0,2.49-0.331,2.579-1.294c0.182-1.992,0.237-3.981,0.221-5.971 c1.508-1.627,2.741-3.444,3.849-5.348c0.72,1.405,1.405,2.821,1.887,4.35c0.816,2.602,2.182,4.991,2.971,7.604 c0.518,1.713,4.229,0.701,3.717-0.996C103.321,45.964,102.02,43.551,101.139,40.971z"/>
      <path fill="#FFFFFF" d="M123.443,36.573c-0.199-0.791-1.302-0.807-2.156-0.731c-0.012-0.318-0.02-0.637-0.033-0.956 c-0.12-2.525-0.158-5.104-0.371-7.622c-0.198-2.331-1.505-3.167-3.77-3.08c-2.293,0.087-4.962,0.5-7.101,1.332 c-2.475,0.962-3.852,2.784-4.326,5.391c-0.522,2.86,0.227,5.901,0.354,8.775c0.146,3.324,0.062,6.655,0.059,9.98 c0,0.545,3.717,0.03,3.717-0.996c0.004-2.633,0.041-5.268,0-7.9c-0.013-0.777-0.049-1.549-0.097-2.318 c1.3-0.563,3.499,0.011,4.792,0.133c1.052,0.1,2.059-0.155,3.079-0.275c0.02,2.193,0.101,4.4,0.191,6.591 c0.047,1.122,0.453,3.351-0.335,4.279c-0.414,0.491,1.405,0.326,1.475,0.314c0.753-0.139,1.671-0.381,2.186-0.988 c0.901-1.062,0.433-3.597,0.381-4.863c-0.074-1.814-0.097-3.63-0.135-5.443C122.448,38.051,123.647,37.38,123.443,36.573z M109.571,36.43c-0.099-1.183-0.207-2.364-0.288-3.552c-0.15-2.212,0.111-5.298,2.172-6.642c0.553-0.36,1.59-0.298,2.235-0.416 c0.922-0.166,1.856-0.369,2.685,0.181c1.148,0.762,0.865,3.47,0.863,4.62c-0.002,1.904,0.198,3.797,0.295,5.698 c-0.524,0.052-1.056,0.084-1.597,0.073C113.767,36.339,111.625,35.998,109.571,36.43z"/>
      <path fill="#FFFFFF" d="M49.915,25.373c0.495-0.047,0.992-0.215,1.401-0.497c0.082-0.068,0.162-0.138,0.244-0.206 c0.493-0.318,0.92-0.785,0.69-1.291c-0.479-1.049-0.403-2.117-0.395-3.241c0.006-0.908-0.914-1.182-1.689-1.114 c-0.686,0.061-2.058,0.551-2.063,1.443c-0.007,0.942-0.068,1.913,0.104,2.84c-0.046,0.106-0.071,0.226-0.099,0.336 c-0.053,0.201,0.015,0.399,0.135,0.56c0,0.042,0.002,0.085,0.002,0.127c0.004,0.106,0.01,0.212,0.014,0.318 c0.07,0.221,0.205,0.388,0.407,0.503C49.033,25.373,49.498,25.414,49.915,25.373z"/>
    </g>
  </g>
</svg>
