<svg id="Layer_1" data-name="Layer 1" xmlns="http://www.w3.org/2000/svg" viewBox="0 0 112.4 46.05">
<title>mishka-logo--tablet</title>
<g id="Layer_2" data-name="Layer 2">
<path d="M110.23,41.88c4.39.87.84-35.86.15-38.31C108.42-3,83.7,1.43,78.2,1.85c-12.72,1-25.19-1-37.61-.38-6.21.29-34.85-1.81-37.52,2C-2,10.67.41,29.26,1.79,38.54c-4,.78,2.31,4.15,3.14,4.9,6.31,2.19,16.36-.22,23,.4,15.43,1.47,31.8-2.19,47.28-1,4.5,1.14,9.6,1,14.22,1.24,3.41,5.57,19.66-2.46,20.8-2.24Z" transform="translate(0.01 0)"/>
</g>
<g id="Layer_1-2" data-name="Layer 1-2">
<g>
<path d="M26.06,24.41c-.08-2.55-.48-5.07-.45-7.62,0-2.06.37-4.18-.34-6.16A4,4,0,0,1,25.4,10c.18-1-3.1-.47-3.62.44-.33.27-.49.58-.35.91l.1.25A74.39,74.39,0,0,1,19,20.47c-.38,1.13-.84,2.23-1.23,3.35a33.77,33.77,0,0,1-1.56-3.21c-1.3-3.26-2.48-6.55-4.07-9.69.18-1.45-3-1.3-3.67,0a8.21,8.21,0,0,0-.42,4.95,43.09,43.09,0,0,1,.36,5.8c0,3.77.34,7.54.4,11.31a1,1,0,0,0-.09,1.3,3,3,0,0,0,.54.52c.86.69,3.32.1,3.32-1.21,0-3.91-.29-7.82-.4-11.73V20.71l.16.41a32.14,32.14,0,0,0,2.07,4.42A20.35,20.35,0,0,1,16.14,30a.74.74,0,0,0-.22.67.32.32,0,0,0,.24.34c.61.52,1.75.26,2.38,0a5.72,5.72,0,0,0,.78-.4c.33-.2.84-.64.69-1.1l-.08-.26a23,23,0,0,0,.92-3.73,23.53,23.53,0,0,1,1.23-3.92c0,.59.1,1.18.15,1.76.19,2.42,0,4.81,0,7.24a11,11,0,0,0,.21,2.4,10,10,0,0,1,.27,1.79.74.74,0,0,0,.37,1.36,3.15,3.15,0,0,0,2.63-.71c1.14-1,.6-2.7.34-4C25.61,29.16,26.13,26.67,26.06,24.41Z" transform="translate(0.01 0)" fill="#fff"/>
<path d="M34,25c-.07-1.89-.73-3.67-.73-5.57a46.19,46.19,0,0,0-.15-6.53c-.1-.69-3.85.09-3.72,1a36.88,36.88,0,0,1,.15,6,37,37,0,0,0,.69,5.6c.25,2-.08,4,.14,5.9.1.91.71,2.6.08,3.4-.4.5,1.39.32,1.47.31a3.67,3.67,0,0,0,2.19-1c.62-.78.19-2.3,0-3.18A52.18,52.18,0,0,1,34,25Z" transform="translate(0.01 0)" fill="#fff"/>
<path d="M49.49,21.9c-2-2.64-5.59-.74-8.12-1.46C40.06,20.07,40,18.28,40,17.22a33.43,33.43,0,0,0-.26-3.93,3.23,3.23,0,0,1,.71-2.76,4.19,4.19,0,0,1,.77-.32,7.6,7.6,0,0,1,1-.09c1.47-.06,4.38.22,3.81,2.36-.25,1,3.41.41,3.68-.6C50.86,7.52,42.8,8.35,40.52,9c-2.1.56-4.41,1.75-4.53,4.17-.06,1.16.26,2.26.31,3.4a12.64,12.64,0,0,0,.27,3.91c1,2.83,5.24,1.5,7.38,1.66,3.65.27,2.56,5.19,2.61,7.48,0,1.22,1.12,3.25.2,4.28-.57.63-1.88.66-2.65.73s-2.09.3-2.6-.44c-.94-1.34.09-3.61-.11-5.15-.11-.88-3.86-.09-3.72,1,.33,2.49-1.33,5.83,2.28,6.26a17.14,17.14,0,0,0,7.12-.88,8.38,8.38,0,0,0,3.08-1.7c1-.89.66-2.23.4-3.37C50,27.53,51.3,24.34,49.49,21.9Z" transform="translate(0.01 0)" fill="#fff"/>
<path d="M65.93,21.72c-.11-3.58-.65-7.13-.67-10.72,0-1.87-3.76-1.24-3.75.32,0,3.42.47,6.8.65,10.22v.21c-1.85,0-3.7.17-5.55.23.19-4.4-.58-8.76-.41-13.15,0-.55-3.68-.09-3.72,1-.16,4.25.56,8.46.43,12.71-.06,2-.23,4-.25,6.07a20.59,20.59,0,0,0,.31,3.1,7.91,7.91,0,0,1,.17,3.15c-.22.73,3.38.28,3.67-.66.52-1.69-.21-3.83-.38-5.54a29.2,29.2,0,0,1,.08-5,28.26,28.26,0,0,1,5.77,0c.08,1.31.19,2.61.3,3.92.1,1.1.17,2.19.19,3.3a10,10,0,0,1-.21,3.28c-.73,2,3,1.79,3.53.35.67-1.78.48-4,.36-5.85C66.32,26.35,66,24,65.93,21.72Z" transform="translate(0.01 0)" fill="#fff"/>
<path d="M82,26a70.33,70.33,0,0,0-3.43-7.4c1-1.85,1.92-3.7,2.78-5.59.79-1.72,1.37-3.62,2.92-4.83.54-.42.52-.85-.24-.9A4.22,4.22,0,0,0,81.4,8a10.2,10.2,0,0,0-3,4.05c-.88,1.95-1.8,3.86-2.76,5.76l-.21.42a1.09,1.09,0,0,0-.61,1.2c-.75,1.48-1.52,3-2.37,4.37-.28-5.25-.91-10.5-1.09-15.75,0-1.2-3.77-.46-3.71,1,.23,6.52,1.16,13,1.22,19.54h0c-.29.29-.18.47.05.57,0,1.66-.06,3.32-.2,5-.45.71.44,1.08,1,1.08h.09c.7,0,2.49-.33,2.58-1.29.18-2,.24-4,.22-6a29.83,29.83,0,0,0,3.85-5.35A28,28,0,0,1,78.29,27c.82,2.6,2.18,5,3,7.6.52,1.71,4.23.7,3.72-1C84.18,31,82.88,28.55,82,26Z" transform="translate(0.01 0)" fill="#fff"/>
<path d="M104.31,21.57c-.2-.79-1.3-.81-2.16-.73v-1c-.12-2.53-.16-5.1-.37-7.62-.2-2.33-1.5-3.17-3.77-3.08a23,23,0,0,0-7.1,1.33,6.64,6.64,0,0,0-4.33,5.39c-.52,2.86.23,5.9.35,8.77.15,3.32.06,6.66.06,10,0,.54,3.72,0,3.72-1v-7.9a17.93,17.93,0,0,0-.1-2.32c1.3-.56,3.5,0,4.79.13a14.42,14.42,0,0,0,3.08-.28c0,2.19.1,4.4.19,6.59,0,1.12.45,3.35-.33,4.28-.41.49,1.41.33,1.47.31a3.75,3.75,0,0,0,2.19-1c.9-1.06.43-3.6.38-4.86-.07-1.81-.1-3.63-.13-5.44C103.31,23,104.51,22.38,104.31,21.57Zm-13.87-.14c-.1-1.18-.21-2.36-.29-3.55-.15-2.21.11-5.3,2.17-6.64a6.81,6.81,0,0,1,2.24-.42,3.48,3.48,0,0,1,2.68.18c1.15.76.87,3.47.86,4.62,0,1.9.2,3.8.29,5.7a13.18,13.18,0,0,1-1.6.07c-2.16-.05-4.3-.39-6.36,0Z" transform="translate(0.01 0)" fill="#fff"/>
<path d="M30.78,10.37a3,3,0,0,0,1.4-.5l.24-.21c.49-.32.92-.78.69-1.29a7.32,7.32,0,0,1-.39-3.24C32.73,4.23,31.81,4,31,4s-2,.57-2,1.46a15.11,15.11,0,0,0,.1,2.84,2.12,2.12,0,0,0-.1.34.65.65,0,0,0,.14.56v.45a.86.86,0,0,0,.41.5A2.06,2.06,0,0,0,30.78,10.37Z" transform="translate(0.01 0)" fill="#fff"/>
</g>
</g>
</svg>
